<?xml version="1.0" encoding="UTF-8"?>
<svg version="1.1" xmlns="http://www.w3.org/2000/svg" width="2000" height="2000">
<path d="M0 0 C5.44857968 -0.03301994 10.89710423 -0.05830589 16.34576607 -0.07267761 C17.99360455 -0.07774512 19.64143859 -0.0847468 21.28925896 -0.09398651 C63.97035362 -0.32150391 105.17320001 11.34790187 140.22518921 36.01719284 C140.79592163 36.41825241 141.36665405 36.81931198 141.9546814 37.23252487 C148.25568327 41.70935477 154.13592443 46.54310365 159.80722046 51.79063034 C161.38267888 53.24137557 162.98357902 54.66511343 164.61190796 56.05625534 C195.10788095 82.27984564 215.25941654 121.62932627 223.91268921 160.45469284 C224.11539429 161.35945358 224.31809937 162.26421432 224.52694702 163.19639206 C227.97604486 179.43709399 228.59995153 195.42718747 228.81674194 211.96958542 C228.85353882 214.31171264 228.89087406 216.65383145 228.92870998 218.99594212 C229.04307307 226.33618277 229.13736313 233.67659126 229.22518921 241.01719284 C229.23907259 242.17428615 229.25295598 243.33137946 229.26726007 244.52353621 C229.46132435 261.00570634 229.60215255 277.48823188 229.73044133 293.97102714 C229.77679873 299.87401186 229.82548927 305.77697736 229.87393766 311.67994521 C229.97589138 324.11858167 230.07435064 336.55724378 230.17153215 348.99591831 C230.25329711 359.4500565 230.33831807 369.90416402 230.42562866 380.35825729 C230.71105711 414.58232259 230.97086812 448.80641444 231.18158722 483.03104019 C231.20972779 487.58749226 231.23916619 492.14393243 231.2700119 496.70036697 C231.3499594 508.5529741 231.41539118 520.40543657 231.45208549 532.25826073 C231.46310109 535.66397416 231.4808597 539.06953332 231.50535774 542.47517586 C231.65594811 564.14261848 231.40480639 585.73806874 225.47518921 606.76719284 C225.21914917 607.70708054 224.96310913 608.64696823 224.6993103 609.61533737 C216.97786679 637.20122989 204.54570242 662.89836078 186.22518921 685.01719284 C185.74404663 685.59984909 185.26290405 686.18250534 184.7671814 686.78281784 C175.45783808 697.98995012 165.71958894 708.00382475 154.22518921 717.01719284 C153.32284546 717.73648972 152.42050171 718.45578659 151.49081421 719.19688034 C115.95043787 746.78485203 73.23079921 760.50503077 28.5196228 761.54624557 C27.26585095 761.57698333 27.26585095 761.57698333 25.98675036 761.60834205 C2.74682816 762.17250752 -20.49859237 762.33854133 -43.74398756 762.52244496 C-48.85832081 762.56331868 -53.97263503 762.6063612 -59.0869509 762.64934725 C-71.95608474 762.75746943 -84.82524729 762.86150731 -97.69443066 762.96353578 C-107.90322278 763.04458297 -118.11197466 763.12964751 -128.32070923 763.21763229 C-161.29535837 763.50129837 -194.27007681 763.7524352 -227.24538732 763.94752586 C-233.65839694 763.98558671 -240.07138648 764.02536291 -246.48435974 764.06915665 C-260.08565538 764.16200887 -273.68681578 764.24335952 -287.28836739 764.28758687 C-292.9475612 764.30611222 -298.60653486 764.33057311 -304.26560593 764.37280083 C-369.98706732 764.84742943 -425.34228257 748.38951669 -473.33731079 701.64219284 C-509.37020031 665.04036296 -529.54465875 613.88013671 -530.05386353 562.83384323 C-530.07158669 561.37934271 -530.08965807 559.9248464 -530.10804176 558.47035408 C-530.15761931 554.44061703 -530.20113577 550.41083418 -530.24339986 546.38101459 C-530.27124693 543.7702485 -530.30076731 541.15950654 -530.33083916 538.54876518 C-530.92025453 487.35413954 -531.31402499 436.15733278 -531.72116224 384.96099348 C-531.80946411 373.8623214 -531.90040186 362.76367272 -531.99255712 351.66503202 C-532.08927605 340.01404346 -532.18423637 328.3630417 -532.27741522 316.71202427 C-532.32895991 310.27163386 -532.38107362 303.83124976 -532.43498421 297.39087868 C-532.54279146 284.44701176 -532.63987699 271.50318966 -532.71133918 258.55906612 C-532.74510436 252.53468174 -532.78623424 246.51047957 -532.83985519 240.48623657 C-532.89585135 234.16830769 -532.93603091 227.8504423 -532.96617782 221.53233922 C-532.98005518 219.16367788 -532.99916686 216.79503969 -533.02426159 214.42647064 C-533.53270822 165.13799823 -519.57297476 117.3647603 -487.77481079 79.01719284 C-487.03714478 78.12725632 -487.03714478 78.12725632 -486.28457642 77.21934128 C-480.7305554 70.56078785 -475.1566449 63.90574508 -468.77481079 58.01719284 C-468.19988892 57.48352097 -467.62496704 56.94984909 -467.03262329 56.40000534 C-441.79951707 33.67973957 -411.67548811 17.13094161 -378.77481079 8.64219284 C-377.91218628 8.41564011 -377.04956177 8.18908737 -376.16079712 7.9556694 C-358.61827161 3.73390899 -340.64948905 2.56955765 -322.67324829 2.50889206 C-320.67356017 2.49155232 -318.67388252 2.47296973 -316.67421627 2.45326805 C-311.29072809 2.40367601 -305.90726296 2.37121394 -300.52363086 2.34200859 C-294.77480051 2.307711 -289.02611209 2.25699663 -283.27738953 2.20823288 C-273.49802719 2.12743178 -263.71863684 2.05655071 -253.93914795 1.99296188 C-240.00548962 1.90235026 -226.07198108 1.79647036 -212.13846457 1.68637013 C-192.17361785 1.52880184 -172.20872593 1.37933384 -152.24375856 1.23791575 C-129.54992043 1.07713506 -106.85633427 0.89900278 -84.16286135 0.69307089 C-81.31657659 0.66727096 -78.4702897 0.64171155 -75.62400281 0.61614835 C-69.75573131 0.56343109 -63.88746275 0.51039061 -58.01919556 0.45719528 C-38.67955657 0.28206572 -19.34006231 0.11983181 0 0 Z " fill="#5994AD" transform="translate(1150.7748107910156,484.9828071594238)"/>
<path d="M0 0 C0.33 0 0.66 0 1 0 C1.45667207 32.39037856 1.90181358 64.78090083 2.25390625 97.17260742 C2.26414385 98.11381679 2.27438145 99.05502616 2.28492928 100.02475703 C2.3892259 109.64090426 2.4911187 119.25707476 2.59025669 128.87327653 C2.79856412 149.03422544 3.03460493 169.19387195 3.36104393 189.35328114 C3.57788058 202.77667793 3.74687178 216.1998993 3.86372375 229.62454891 C3.93505347 237.62447899 4.04747497 245.62155217 4.21515656 253.62005341 C4.3383368 259.70730959 4.38661216 265.79283774 4.40716553 271.88140106 C4.42697957 274.33942407 4.47057805 276.79740201 4.54107666 279.25449371 C4.92616797 293.18022049 4.03481959 302.33702996 -5.7358551 312.8035326 C-6.93780196 314.01797039 -8.15271142 315.21976864 -9.38252258 316.40598106 C-11.48061655 318.47364611 -13.27638758 320.72375204 -15.0625 323.0625 C-18.51066207 327.40051034 -22.00213957 331.70206279 -25.5 336 C-29.01580965 340.32090365 -32.5272445 344.64434055 -36 349 C-39.37223993 353.22767187 -42.77626566 357.42879127 -46.1875 361.625 C-47.01870361 362.64762939 -47.01870361 362.64762939 -47.86669922 363.69091797 C-50.68821569 367.16087258 -53.51238422 370.62863641 -56.33984375 374.09375 C-61.42703393 380.3336245 -66.48612874 386.58912172 -71.4375 392.9375 C-76.65811323 399.62676926 -82.04997486 406.16816257 -87.45703125 412.70703125 C-91.91812419 418.10396669 -96.32942717 423.54085032 -100.73828125 428.98046875 C-103.04142307 431.82197085 -105.35245431 434.65685287 -107.66796875 437.48828125 C-108.26730225 438.22232178 -108.86663574 438.9563623 -109.48413086 439.71264648 C-110.63842899 441.12611511 -111.79413266 442.53843739 -112.95141602 443.94946289 C-115.74515585 447.29316079 -115.74515585 447.29316079 -118 451 C-122.35725862 449.41648321 -124.82286356 446.02057775 -127.6875 442.5625 C-128.21859375 441.93214844 -128.7496875 441.30179688 -129.296875 440.65234375 C-133.13087705 436.08849553 -136.89966827 431.47142314 -140.65625 426.84375 C-143.39302138 423.52313406 -146.19106385 420.25956291 -149 417 C-153.31934272 411.98685227 -157.55097277 406.91462485 -161.72265625 401.77734375 C-164.28204054 398.65603633 -166.88593791 395.5754997 -169.5 392.5 C-172.87283589 388.53096457 -176.21176645 384.53982979 -179.5 380.5 C-184.58175677 374.26083244 -189.78894106 368.13108038 -195 362 C-200.96667813 354.97989455 -206.88997453 347.93426137 -212.70703125 340.7890625 C-215.61559749 337.25121532 -218.58050992 333.76259394 -221.54931641 330.27539062 C-224.27522663 327.0644329 -226.96870118 323.82959019 -229.63671875 320.5703125 C-230.25716064 319.81250488 -230.87760254 319.05469727 -231.5168457 318.27392578 C-232.72741559 316.79248472 -233.935704 315.30917548 -235.14135742 313.82373047 C-238.26129873 310.0057242 -241.4402112 306.41313083 -245 303 C-251.16833397 310.18247012 -257.19639122 317.44383187 -263.01733398 324.91113281 C-266.47254165 329.34116974 -270.00045757 333.70451516 -273.5703125 338.04296875 C-277.03661261 342.26160088 -280.47598695 346.50194087 -283.91699219 350.74121094 C-286.71964813 354.19375811 -289.52444607 357.64448579 -292.3359375 361.08984375 C-297.42487755 367.33066972 -302.48499666 373.58767022 -307.4375 379.9375 C-312.65185364 386.61874874 -318.03704547 393.15246759 -323.4375 399.68359375 C-330.98802456 408.81815889 -338.44217544 418.03198114 -345.83203125 427.296875 C-348.76957429 430.95954128 -351.72753657 434.60544168 -354.6875 438.25 C-355.50831055 439.26126953 -355.50831055 439.26126953 -356.34570312 440.29296875 C-357.89409648 442.1978132 -359.44678061 444.09909025 -361 446 C-361.48549316 446.60005859 -361.97098633 447.20011719 -362.47119141 447.81835938 C-363.62498646 449.23089929 -364.80933338 450.61839765 -366 452 C-366.33 452 -366.66 452 -367 452 C-367.84180721 408.32611002 -368.39569927 364.65552065 -368.66479492 320.97412109 C-368.67104494 319.9659625 -368.67104494 319.9659625 -368.67742121 318.93743706 C-368.75417053 306.55348622 -368.75417053 306.55348622 -368.78936195 300.37607574 C-368.88637231 283.42760489 -369.04608398 266.4818746 -369.30075932 249.53501225 C-369.46737912 238.39298923 -369.59311551 227.25095195 -369.68932247 216.10809994 C-369.74805056 209.49088732 -369.82982646 202.8752019 -369.962677 196.25900269 C-370.08652217 190.07350281 -370.15356038 183.88993794 -370.17803192 177.70327187 C-370.19703827 175.44509565 -370.23667675 173.18697771 -370.29917145 170.92958641 C-370.82440763 151.27762913 -370.82440763 151.27762913 -363.26049805 142.97216797 C-361.7234985 141.43414191 -360.15418638 139.95246979 -358.54319763 138.4923315 C-355.92508873 135.96051943 -353.82261919 133.08710273 -351.625 130.1875 C-351.12693848 129.54772217 -350.62887695 128.90794434 -350.11572266 128.2487793 C-349.7191748 127.73742432 -349.32262695 127.22606934 -348.9140625 126.69921875 C-345.68519715 122.56997525 -342.34457537 118.53566692 -339 114.5 C-334.76343928 109.38535115 -330.5791837 104.2410963 -326.5 99 C-321.76866679 92.92202265 -316.89119525 86.97277719 -311.98266602 81.03735352 C-308.31615357 76.60287925 -304.68897741 72.14181665 -301.109375 67.63671875 C-298.32474316 64.15592895 -295.50425028 60.70481217 -292.6875 57.25 C-288.59422803 52.22649233 -284.54618008 47.17330246 -280.5625 42.0625 C-275.88743887 36.06755311 -271.07135153 30.19720709 -266.21362305 24.34960938 C-263.35560623 20.89931267 -260.53601705 17.43065699 -257.8046875 13.87890625 C-257.30839844 13.234375 -256.81210937 12.58984375 -256.30078125 11.92578125 C-255.37720083 10.71880081 -254.46008626 9.50683382 -253.55078125 8.2890625 C-251.25351584 5.28605412 -249.42844771 3.54014061 -246 2 C-239.30531096 9.6673332 -232.65014087 17.34762831 -226.2421875 25.2578125 C-223.69746317 28.37000148 -221.10381775 31.43726497 -218.5 34.5 C-214.37886052 39.34948722 -210.33008388 44.25161123 -206.3125 49.1875 C-203.73853608 52.31799666 -201.12430914 55.41172461 -198.5 58.5 C-194.37594815 63.35316599 -190.32334463 68.25812965 -186.3046875 73.19921875 C-183.77966925 76.26775787 -181.20515231 79.29039812 -178.625 82.3125 C-174.84207508 86.74851603 -171.19467263 91.26600643 -167.625 95.875 C-163.16948329 101.62027155 -158.48856595 107.13095441 -153.70019531 112.60058594 C-149.78728505 117.07348335 -145.99265748 121.62601626 -142.25390625 126.24609375 C-139.18737722 129.99289265 -136.03739161 133.66656485 -132.89428711 137.34912109 C-129.80335462 140.99218275 -126.88130222 144.71068291 -124.12109375 148.609375 C-123.0323767 150.15699673 -123.0323767 150.15699673 -121 151 C-120.72921631 150.41460449 -120.45843262 149.82920898 -120.17944336 149.22607422 C-119.00828238 147.01563212 -117.73529141 145.29431109 -116.12890625 143.3828125 C-115.56042969 142.70089844 -114.99195313 142.01898437 -114.40625 141.31640625 C-113.7978125 140.59324219 -113.189375 139.87007812 -112.5625 139.125 C-108.13187956 133.80644335 -103.74626927 128.46703168 -99.5 123 C-94.7693443 116.92151372 -89.89117576 110.97275363 -84.98266602 105.03735352 C-81.31615357 100.60287925 -77.68897741 96.14181665 -74.109375 91.63671875 C-71.32474316 88.15592895 -68.50425028 84.70481217 -65.6875 81.25 C-61.59422803 76.22649233 -57.54618008 71.17330246 -53.5625 66.0625 C-48.87928402 60.05709595 -44.04918543 54.18149929 -39.19165039 48.31665039 C-35.56310874 43.92598102 -31.99841283 39.49489895 -28.5 35 C-23.77732286 28.93314243 -18.91003022 22.99370513 -14.0090332 17.0703125 C-10.07483322 12.31395083 -6.18858176 7.52588572 -2.35546875 2.6875 C-1 1 -1 1 0 0 Z " fill="#C2DCE0" transform="translate(1245,640)"/>
<path d="M0 0 C0.66 0 1.32 0 2 0 C3.37491299 1.50787161 4.67364462 3.08539761 5.9375 4.6875 C6.74058594 5.69167969 7.54367187 6.69585938 8.37109375 7.73046875 C8.79890137 8.26591309 9.22670898 8.80135742 9.66748047 9.35302734 C11.89732932 12.10908457 14.20018076 14.80231324 16.5 17.5 C20.62185758 22.34886687 24.66993082 27.25162929 28.6875 32.1875 C31.26146392 35.31799666 33.87569086 38.41172461 36.5 41.5 C40.62101634 46.34959381 44.66991354 51.25160806 48.6875 56.1875 C51.26146392 59.31799666 53.87569086 62.41172461 56.5 65.5 C60.62101634 70.34959381 64.66991354 75.25160806 68.6875 80.1875 C71.26146392 83.31799666 73.87569086 86.41172461 76.5 89.5 C80.62101634 94.34959381 84.66991354 99.25160806 88.6875 104.1875 C91.26146392 107.31799666 93.87569086 110.41172461 96.5 113.5 C99.87278574 117.46907935 103.21176517 121.46016863 106.5 125.5 C109.90297247 129.67553919 113.34145863 133.8185309 116.8125 137.9375 C117.26882813 138.48148438 117.72515625 139.02546875 118.1953125 139.5859375 C120.9317828 142.82386552 120.9317828 142.82386552 124.12064075 145.59810448 C126.99591199 149.27281495 126.57344801 152.73340201 126.55021667 157.27798462 C126.56109591 158.22869917 126.57197515 159.17941373 126.58318406 160.15893781 C126.61493083 163.35561993 126.61826017 166.55170645 126.62182617 169.74853516 C126.63878619 172.03923857 126.65750118 174.32992957 126.67784119 176.62060547 C126.72838168 182.86784736 126.75443817 189.11498682 126.77650237 195.36238527 C126.80132909 201.28272333 126.84490047 207.20289865 126.88846401 213.12312405 C126.97470137 224.91843959 127.04363045 236.71379 127.10131836 248.50927734 C127.15669657 259.82313231 127.21818629 271.13691897 127.28979492 282.45068359 C127.29415262 283.13969225 127.29851031 283.8287009 127.30300006 284.5385886 C127.34686604 291.45339012 127.39181345 298.36818452 127.43706303 305.28297711 C127.4549821 308.0219285 127.47285087 310.76088021 127.49069133 313.49983211 C127.49953968 314.8576316 127.50840722 316.21543096 127.51729409 317.57323019 C127.57246872 326.02210969 127.62210679 334.47100039 127.66529471 342.91995037 C127.84521377 377.9538202 128.31613461 412.97269677 129 448 C124.72395144 446.08401557 122.25266951 443.11185571 119.3125 439.5625 C118.78213135 438.93287354 118.2517627 438.30324707 117.70532227 437.65454102 C113.85108601 433.06583248 110.05491217 428.42928605 106.27734375 423.77734375 C103.71796028 420.65603733 101.11410084 417.57546576 98.5 414.5 C95.14552873 410.55349519 91.82778171 406.58357928 88.5625 402.5625 C85.10725849 398.31607618 81.57302166 394.14703706 78 390 C73.68071044 384.98680512 69.44902881 379.9146268 65.27734375 374.77734375 C62.71796028 371.65603733 60.11410084 368.57546576 57.5 365.5 C54.14552873 361.55349519 50.82778171 357.58357928 47.5625 353.5625 C43.60491812 348.69870975 39.53457554 343.94118769 35.44165039 339.19165039 C31.66903661 334.80476462 27.99673368 330.34506443 24.3515625 325.8515625 C22.08688168 323.10535486 19.78200334 320.40097555 17.4543457 317.70825195 C16.40527443 316.49052492 15.36207459 315.26771377 14.32495117 314.03979492 C12.19176517 311.51442583 10.08697099 309.0845923 7.71484375 306.77734375 C3.25158179 302.16744485 2.52819049 297.96596113 2.3427887 291.71069336 C2.3091011 290.88038321 2.2754135 290.05007307 2.24070507 289.19460201 C1.84057771 278.40672316 1.77739356 267.6103414 1.70288086 256.81640625 C1.68338764 254.44677437 1.66352512 252.0771455 1.64332581 249.70751953 C1.58996553 243.32222693 1.54182437 236.93690489 1.49474788 230.55156326 C1.44940478 224.50301779 1.40026755 218.45450423 1.35125155 212.40598762 C1.25409942 200.39959022 1.16090804 188.39316544 1.07006836 176.38671875 C0.98258238 164.82419652 0.89257434 153.26169786 0.79956055 141.69921875 C0.79384928 140.9891987 0.78813801 140.27917864 0.78225368 139.54764283 C0.77074058 138.11656147 0.75922732 136.68548012 0.7477139 135.25439876 C0.74203024 134.5478753 0.73634658 133.84135184 0.73049068 133.11341858 C0.72198091 132.05574613 0.72198091 132.05574613 0.71329921 130.97670656 C0.62385032 119.84749483 0.53656789 108.71826596 0.44956721 97.58903486 C0.41329926 92.95202375 0.37661854 88.31501602 0.33982658 83.67800903 C0.11944147 55.78499174 -0.07692292 27.8940103 0 0 Z " fill="#71B3CB" transform="translate(750,645)"/>
<path d="M0 0 C0.33 0 0.66 0 1 0 C1.45667207 32.39037856 1.90181358 64.78090083 2.25390625 97.17260742 C2.26414385 98.11381679 2.27438145 99.05502616 2.28492928 100.02475703 C2.3892259 109.64090426 2.4911187 119.25707476 2.59025669 128.87327653 C2.79856412 149.03422544 3.03460493 169.19387195 3.36104393 189.35328114 C3.57788058 202.77667793 3.74687178 216.1998993 3.86372375 229.62454891 C3.93505347 237.62447899 4.04747497 245.62155217 4.21515656 253.62005341 C4.3383368 259.70730959 4.38661216 265.79283774 4.40716553 271.88140106 C4.42697957 274.33942407 4.47057805 276.79740201 4.54107666 279.25449371 C4.92616797 293.18022049 4.03481959 302.33702996 -5.7358551 312.8035326 C-6.93780196 314.01797039 -8.15271142 315.21976864 -9.38252258 316.40598106 C-11.48061655 318.47364611 -13.27638758 320.72375204 -15.0625 323.0625 C-18.51066207 327.40051034 -22.00213957 331.70206279 -25.5 336 C-29.01580965 340.32090365 -32.5272445 344.64434055 -36 349 C-39.37223993 353.22767187 -42.77626566 357.42879127 -46.1875 361.625 C-47.01870361 362.64762939 -47.01870361 362.64762939 -47.86669922 363.69091797 C-50.68821569 367.16087258 -53.51238422 370.62863641 -56.33984375 374.09375 C-61.42703393 380.3336245 -66.48612874 386.58912172 -71.4375 392.9375 C-76.65811323 399.62676926 -82.04997486 406.16816257 -87.45703125 412.70703125 C-90.84703226 416.80818243 -94.20972723 420.93088752 -97.5625 425.0625 C-98.08674561 425.70759521 -98.61099121 426.35269043 -99.15112305 427.01733398 C-101.98851787 430.51128725 -104.81542737 434.01332649 -107.6328125 437.5234375 C-108.22763428 438.26198975 -108.82245605 439.00054199 -109.43530273 439.76147461 C-110.58104629 441.18435496 -111.72391223 442.6095585 -112.86352539 444.03735352 C-116.77495556 448.88747778 -116.77495556 448.88747778 -119 450 C-119.87956665 402.93910196 -120.37765042 355.87123165 -120.66650391 308.80322266 C-120.67061964 308.13800409 -120.67473537 307.47278553 -120.67897582 306.78740883 C-120.71661262 300.7034392 -120.75405307 294.61946865 -120.78924179 288.53548431 C-120.88409562 272.26316662 -121.03994842 255.99381024 -121.30075932 239.72326946 C-121.46615579 229.36828601 -121.59196229 219.01327046 -121.68932247 208.65742207 C-121.74868394 202.57351799 -121.82945764 196.4916145 -121.962677 190.40884399 C-122.08639174 184.74978285 -122.15352994 179.09283405 -122.17803192 173.43250084 C-122.19700631 171.37573571 -122.23656888 169.31903184 -122.29917145 167.2631321 C-122.60550031 156.85205218 -122.507479 149.09648692 -115.26049805 141.09521484 C-113.72048447 139.53229778 -112.14957906 138.01851704 -110.54319763 136.52405453 C-107.94918722 133.96222238 -105.82872177 131.08806525 -103.625 128.1875 C-103.12693848 127.54772217 -102.62887695 126.90794434 -102.11572266 126.2487793 C-101.7191748 125.73742432 -101.32262695 125.22606934 -100.9140625 124.69921875 C-97.68519715 120.56997525 -94.34457537 116.53566692 -91 112.5 C-86.76344097 107.38535319 -82.57912945 102.24113665 -78.5 97 C-73.8402126 91.01279542 -69.03067485 85.15906531 -64.19140625 79.31640625 C-60.56299073 74.92578528 -56.99829576 70.49484293 -53.5 66 C-48.8402126 60.01279542 -44.03067485 54.15906531 -39.19140625 48.31640625 C-35.56298934 43.9257836 -31.99834229 39.49480832 -28.5 35 C-23.77732286 28.93314243 -18.91003022 22.99370513 -14.0090332 17.0703125 C-10.07483322 12.31395083 -6.18858176 7.52588572 -2.35546875 2.6875 C-1 1 -1 1 0 0 Z " fill="#FEFEFE" transform="translate(1245,640)"/>
<path d="M0 0 C0.66 0 1.32 0 2 0 C2.00423194 0.5721074 2.00846388 1.1442148 2.01282406 1.73365879 C2.14097354 19.04084862 2.27163949 36.34801891 2.40385818 53.65517807 C2.42626896 56.58924181 2.44861254 59.52330606 2.47089767 62.45737076 C2.72836432 96.3418004 2.9994373 130.22566485 3.39604855 164.10881329 C3.40755223 165.09198937 3.41905592 166.07516546 3.4309082 167.08813477 C3.44226838 168.05746099 3.45362856 169.0267872 3.46533298 170.02548695 C3.542718 176.72126222 3.60890025 183.41708309 3.66870117 190.11303711 C3.68563016 191.98676049 3.70256231 193.86048383 3.71949768 195.73420715 C3.74445806 198.49607803 3.76929263 201.25794944 3.79351616 204.01982689 C3.89183051 215.05095734 4.04693542 226.07884586 4.27983379 237.10798359 C4.43220136 244.38330361 4.5482223 251.65860461 4.63750935 258.9349699 C4.69115905 263.1454853 4.76375764 267.35349875 4.88723755 271.56259155 C5.72566684 300.71091054 5.72566684 300.71091054 -1.1953125 308.140625 C-3.06025236 309.88825117 -4.97990352 311.42237715 -7 313 C-8.77247738 315.0019162 -8.77247738 315.0019162 -10.1640625 316.9453125 C-10.57833496 317.47817871 -10.99260742 318.01104492 -11.41943359 318.56005859 C-11.81727051 319.07648926 -12.21510742 319.59291992 -12.625 320.125 C-16.54062959 325.15421071 -20.52019429 330.12085 -24.5703125 335.04296875 C-28.03661261 339.26160088 -31.47598695 343.50194087 -34.91699219 347.74121094 C-37.71964813 351.19375811 -40.52444607 354.64448579 -43.3359375 358.08984375 C-48.42487755 364.33066972 -53.48499666 370.58767022 -58.4375 376.9375 C-63.65185364 383.61874874 -69.03704547 390.15246759 -74.4375 396.68359375 C-81.98802456 405.81815889 -89.44217544 415.03198114 -96.83203125 424.296875 C-99.76957429 427.95954128 -102.72753657 431.60544168 -105.6875 435.25 C-106.50831055 436.26126953 -106.50831055 436.26126953 -107.34570312 437.29296875 C-108.89409648 439.1978132 -110.44678061 441.09909025 -112 443 C-112.48549316 443.60005859 -112.97098633 444.20011719 -113.47119141 444.81835938 C-114.62498646 446.23089929 -115.80933338 447.61839765 -117 449 C-117.33 449 -117.66 449 -118 449 C-118.84180721 405.32611002 -119.39569927 361.65552065 -119.66479492 317.97412109 C-119.67104494 316.9659625 -119.67104494 316.9659625 -119.67742121 315.93743706 C-119.75417053 303.55348622 -119.75417053 303.55348622 -119.78936195 297.37607574 C-119.88637231 280.42760489 -120.04608398 263.4818746 -120.30075932 246.53501225 C-120.46737912 235.39298923 -120.59311551 224.25095195 -120.68932247 213.10809994 C-120.74805056 206.49088732 -120.82982646 199.8752019 -120.962677 193.25900269 C-121.08652217 187.07350281 -121.15356038 180.88993794 -121.17803192 174.70327187 C-121.19703827 172.44509565 -121.23667675 170.18697771 -121.29917145 167.92958641 C-121.82440763 148.27762913 -121.82440763 148.27762913 -114.26049805 139.97216797 C-112.7234985 138.43414191 -111.15418638 136.95246979 -109.54319763 135.4923315 C-106.92508873 132.96051943 -104.82261919 130.08710273 -102.625 127.1875 C-102.12693848 126.54772217 -101.62887695 125.90794434 -101.11572266 125.2487793 C-100.7191748 124.73742432 -100.32262695 124.22606934 -99.9140625 123.69921875 C-96.68519715 119.56997525 -93.34457537 115.53566692 -90 111.5 C-85.76343928 106.38535115 -81.5791837 101.2410963 -77.5 96 C-72.76866679 89.92202265 -67.89119525 83.97277719 -62.98266602 78.03735352 C-59.31615357 73.60287925 -55.68897741 69.14181665 -52.109375 64.63671875 C-49.32474316 61.15592895 -46.50425028 57.70481217 -43.6875 54.25 C-39.59422803 49.22649233 -35.54618008 44.17330246 -31.5625 39.0625 C-26.88857915 33.06901533 -22.06901165 27.20428443 -17.22021484 21.35180664 C-12.38269277 15.49949006 -7.67501404 9.55408461 -3.01171875 3.5625 C-1 1 -1 1 0 0 Z " fill="#DCF1FC" transform="translate(996,643)"/>
<path d="M0 0 C8.91 0 17.82 0 27 0 C27.4439209 2.24989746 27.8878418 4.49979492 28.34521484 6.81787109 C29.81790789 14.2817329 31.2907432 21.74556662 32.76364708 29.20938683 C33.65597569 33.73121197 34.54825755 38.25304633 35.44042969 42.77490234 C36.30267893 47.14508882 37.16505473 51.5152503 38.02751541 55.88539505 C38.35525573 57.5461909 38.68295174 59.20699549 39.01060104 60.8678093 C40.66374009 69.24721886 42.31933983 77.62605568 44 86 C44.23581284 84.96683151 44.47162567 83.93366302 44.71458435 82.8691864 C46.93485563 73.1423912 49.15669052 63.41595433 51.38006496 53.68986797 C52.52312797 48.68933998 53.66563572 43.68868646 54.80688477 38.68774414 C55.90784412 33.86344431 57.01024858 29.0394768 58.11366463 24.2157383 C58.53481823 22.37342962 58.95544702 20.53100089 59.37554741 18.68845177 C59.96309601 16.11188896 60.55249287 13.5357556 61.14233398 10.9597168 C61.31640274 10.19439133 61.4904715 9.42906586 61.66981506 8.64054871 C62.34268626 5.70901393 63.0481468 2.85555959 64 0 C73.57 0 83.14 0 93 0 C94.64533539 4.11333848 95.80516509 7.99465835 96.77172852 12.28125 C96.93622498 12.99571289 97.10072144 13.71017578 97.27020264 14.44628906 C97.81031585 16.79665591 98.34466626 19.14829185 98.87890625 21.5 C99.25446281 23.14005037 99.63035801 24.78002323 100.00657654 26.41992188 C100.99454439 30.7309476 101.9775314 35.04309473 102.95959473 39.35546875 C103.76128501 42.87193329 104.56650495 46.38758496 105.37191868 49.90319824 C106.33375367 54.10186415 107.29407107 58.30087652 108.25390625 62.5 C108.5277222 63.69774048 108.5277222 63.69774048 108.80706978 64.91967773 C109.32473888 67.18585278 109.84139218 69.45225673 110.35766602 71.71875 C110.5098912 72.38487305 110.66211639 73.05099609 110.81895447 73.73730469 C111.59497338 77.14951282 112.3325097 80.56486388 113 84 C113.33 84 113.66 84 114 84 C114.19822861 82.99188766 114.39645721 81.98377533 114.60069275 80.94511414 C116.46728246 71.45372883 118.33593249 61.9627512 120.20661068 52.47217083 C121.16832194 47.59273527 122.12930175 42.713158 123.08862305 37.83325195 C124.01410528 33.12562062 124.9414917 28.41836811 125.87021065 23.71137428 C126.22454515 21.91373929 126.57818836 20.11596789 126.93113518 18.31805992 C127.4248464 15.80371849 127.92099296 13.28986925 128.41772461 10.77612305 C128.56374115 10.02949905 128.70975769 9.28287506 128.86019897 8.5136261 C129.43785761 5.60127184 130.05982653 2.8205204 131 0 C139.25 0 147.5 0 156 0 C154.87497964 10.12518324 154.87497964 10.12518324 154.07145691 13.58792114 C153.8907515 14.37796036 153.71004608 15.16799957 153.52386475 15.98197937 C153.32802795 16.81437637 153.13219116 17.64677338 152.93041992 18.50439453 C152.72212051 19.40820358 152.51382111 20.31201263 152.29920959 21.24320984 C151.61463547 24.20759539 150.9227091 27.17020862 150.23046875 30.1328125 C149.74785655 32.21385065 149.2656294 34.29497813 148.7837677 36.37619019 C147.77398402 40.7326596 146.76076982 45.08831152 145.74487305 49.44335938 C144.45204779 54.98602214 143.16585855 60.53019691 141.88204479 66.07495308 C140.88626013 70.37377567 139.88784418 74.67198368 138.8885746 78.96999741 C138.41402101 81.01170394 137.94003661 83.05354287 137.46666527 85.09552383 C134.83109103 96.45403223 132.07730649 107.75253214 129 119 C118.77 119 108.54 119 98 119 C97.42967041 116.50139404 96.85934082 114.00278809 96.27172852 111.4284668 C94.38915876 103.18195594 92.50495207 94.93581974 90.61993504 86.68986797 C89.47687203 81.68933998 88.33436428 76.68868646 87.19311523 71.68774414 C86.09215588 66.86344431 84.98975142 62.0394768 83.88633537 57.2157383 C83.46518177 55.37342962 83.04455298 53.53100089 82.62445259 51.68845177 C82.03690399 49.11188896 81.44750713 46.5357556 80.85766602 43.9597168 C80.68359726 43.19439133 80.5095285 42.42906586 80.33018494 41.64054871 C79.65731374 38.70901393 78.9518532 35.85555959 78 33 C71.4 61.38 64.8 89.76 58 119 C47.77 119 37.54 119 27 119 C24.20652988 108.74509 21.66844913 98.46770853 19.35546875 88.09375 C19.01949765 86.5975557 18.68325312 85.10142277 18.34675598 83.60534668 C17.46733351 79.6921748 16.59142754 75.77822457 15.71636963 71.86407471 C14.84874587 67.98575146 13.97802276 64.10812458 13.10742188 60.23046875 C12.07875102 55.64836978 11.05052305 51.0661744 10.02487183 46.48339844 C8.33752356 38.94591437 6.6418512 31.41046287 4.92822266 23.87890625 C4.5980716 22.42574442 4.26793717 20.97257881 3.93782043 19.51940918 C3.31831342 16.7927157 2.6960619 14.06666784 2.0723114 11.34094238 C1.79877335 10.13723999 1.52523529 8.9335376 1.2434082 7.69335938 C1.00225784 6.63741577 0.76110748 5.58147217 0.51264954 4.49353027 C0 2 0 2 0 0 Z " fill="#417C9C" transform="translate(661,1295)"/>
<path d="M0 0 C8.58 0 17.16 0 26 0 C26.33 15.84 26.66 31.68 27 48 C28.98 45.36 30.96 42.72 33 40 C39.41113068 34.70384857 45.5119833 33.74435229 53.5625 34.1875 C61.66485762 35.00147819 67.10240308 37.10240308 73 43 C80.22805408 54.25680553 80.15002651 67.00834837 80.09765625 79.90625 C80.09578772 81.24003038 80.09436587 82.57381146 80.09336853 83.90759277 C80.0895776 87.39276067 80.07977715 90.8778859 80.06866455 94.36303711 C80.05837623 97.92951877 80.05380005 101.49600762 80.04882812 105.0625 C80.03868393 112.04170416 80.01910367 119.02079166 80 126 C71.42 126 62.84 126 54 126 C53.95101562 122.06191406 53.90203125 118.12382813 53.8515625 114.06640625 C53.79748483 110.23376815 53.74020393 106.40119031 53.68261719 102.56860352 C53.64339445 99.91399231 53.60956715 97.25946913 53.578125 94.60473633 C53.53223386 90.7792792 53.47427858 86.95416151 53.4140625 83.12890625 C53.40251129 81.95042618 53.39096008 80.77194611 53.37905884 79.55775452 C53.22274889 68.61210841 53.22274889 68.61210841 49.5625 58.4375 C45.25103263 56.01887196 40.81425243 56.42787145 36 57 C31.11450688 58.65757802 29.25901973 60.43149188 27 65 C26.53298723 67.96312878 26.53298723 67.96312878 26.56762695 71.16723633 C26.54783279 72.38812454 26.52803864 73.60901276 26.50764465 74.86689758 C26.50125473 76.17539169 26.49486481 77.4838858 26.48828125 78.83203125 C26.47142488 80.19253655 26.45327334 81.55302637 26.43388367 82.91349792 C26.38648087 86.48248455 26.35660913 90.05140839 26.33044434 93.62060547 C26.30058938 97.26737872 26.25407612 100.91393583 26.20898438 104.56054688 C26.12306213 111.70692105 26.05720876 118.85332987 26 126 C17.42 126 8.84 126 0 126 C0 84.42 0 42.84 0 0 Z " fill="#417C9D" transform="translate(833,1288)"/>
<path d="M0 0 C10.71767081 -0.48540176 21.58061301 2.35913421 29.96875 9.15234375 C32.66489566 11.95218732 34.86209263 14.89096777 36.96875 18.15234375 C37.36835937 18.74402344 37.76796875 19.33570313 38.1796875 19.9453125 C44.07567461 29.98622288 43.96875 43.01417852 43.96875 54.15234375 C25.15875 54.15234375 6.34875 54.15234375 -13.03125 54.15234375 C-11.50635512 63.28299006 -11.50635512 63.28299006 -7.03125 70.15234375 C-1.6212924 73.75898215 4.61591297 73.82555484 10.96875 73.15234375 C17.51444604 71.26208499 22.75103051 67.41750954 27.96875 63.15234375 C32.5896099 68.29270861 36.90741463 73.55870969 40.96875 79.15234375 C34.52338045 87.81330909 25.68437654 92.53818443 14.96875 94.15234375 C3.6346724 95.14035749 -8.85225109 95.9330098 -19.03125 90.15234375 C-20.23587891 89.49878906 -20.23587891 89.49878906 -21.46484375 88.83203125 C-31.16698221 83.00118942 -35.89688406 74.15214602 -39.12109375 63.578125 C-40.37678199 58.35723342 -40.36132225 53.18532333 -40.34375 47.83984375 C-40.36791992 46.38674805 -40.36791992 46.38674805 -40.39257812 44.90429688 C-40.40067826 32.76218973 -37.07870278 21.19570642 -29.0625 11.859375 C-20.79188458 3.87343656 -11.1902388 0.83926791 0 0 Z M-10.28125 25.6953125 C-13.53516309 30.63267368 -13.03125 32.34304569 -13.03125 39.15234375 C-3.13125 39.15234375 6.76875 39.15234375 16.96875 39.15234375 C16.13561042 28.5310357 16.13561042 28.5310357 9.84375 21.27734375 C2.35993907 18.34889599 -5.04871482 19.23640189 -10.28125 25.6953125 Z " fill="#417C9D" transform="translate(1133.03125,1321.84765625)"/>
<path d="M0 0 C10.71767081 -0.48540176 21.58061301 2.35913421 29.96875 9.15234375 C32.66489566 11.95218732 34.86209263 14.89096777 36.96875 18.15234375 C37.36835937 18.74402344 37.76796875 19.33570313 38.1796875 19.9453125 C44.07567461 29.98622288 43.96875 43.01417852 43.96875 54.15234375 C25.15875 54.15234375 6.34875 54.15234375 -13.03125 54.15234375 C-11.50635512 63.28299006 -11.50635512 63.28299006 -7.03125 70.15234375 C-1.6212924 73.75898215 4.61591297 73.82555484 10.96875 73.15234375 C17.51444604 71.26208499 22.75103051 67.41750954 27.96875 63.15234375 C32.5896099 68.29270861 36.90741463 73.55870969 40.96875 79.15234375 C34.52338045 87.81330909 25.68437654 92.53818443 14.96875 94.15234375 C3.6346724 95.14035749 -8.85225109 95.9330098 -19.03125 90.15234375 C-20.23587891 89.49878906 -20.23587891 89.49878906 -21.46484375 88.83203125 C-31.16698221 83.00118942 -35.89688406 74.15214602 -39.12109375 63.578125 C-40.37678199 58.35723342 -40.36132225 53.18532333 -40.34375 47.83984375 C-40.36791992 46.38674805 -40.36791992 46.38674805 -40.39257812 44.90429688 C-40.40067826 32.76218973 -37.07870278 21.19570642 -29.0625 11.859375 C-20.79188458 3.87343656 -11.1902388 0.83926791 0 0 Z M-10.28125 25.6953125 C-13.53516309 30.63267368 -13.03125 32.34304569 -13.03125 39.15234375 C-3.13125 39.15234375 6.76875 39.15234375 16.96875 39.15234375 C16.13561042 28.5310357 16.13561042 28.5310357 9.84375 21.27734375 C2.35993907 18.34889599 -5.04871482 19.23640189 -10.28125 25.6953125 Z " fill="#417C9D" transform="translate(969.03125,1321.84765625)"/>
<path d="M0 0 C10.43438304 9.42088888 13.12898064 23.17714047 13.859375 36.5234375 C13.98038392 50.11677311 10.69535608 62.90380858 1.89453125 73.47265625 C-6.98833851 82.25142988 -16.40177478 84.84131892 -28.60546875 84.97265625 C-36.38645864 84.90920758 -43.14213594 84.22919106 -50.10546875 80.47265625 C-51.15734375 79.91578125 -52.20921875 79.35890625 -53.29296875 78.78515625 C-63.8107115 70.13723444 -69.7132412 59.06621135 -71.10546875 45.47265625 C-72.0791134 30.05082051 -70.13114467 15.55221483 -60.2890625 3.19140625 C-44.51193288 -13.89251593 -17.98959865 -13.04996859 0 0 Z M-40.10546875 15.47265625 C-44.66491181 22.53243905 -44.31806037 29.57698256 -44.35546875 37.72265625 C-44.37609375 38.82996094 -44.39671875 39.93726563 -44.41796875 41.078125 C-44.45596986 49.06785856 -44.02574804 55.28072308 -38.41796875 61.41015625 C-33.23966086 64.63438569 -29.37144748 64.81831402 -23.41796875 63.91015625 C-19.43300463 62.1808322 -17.13895824 60.25367576 -15.10546875 56.47265625 C-11.26146904 46.30207369 -11.70651327 30.95224119 -14.20703125 20.4609375 C-15.86269054 16.79689151 -18.71499331 14.51902339 -22.10546875 12.47265625 C-28.78863421 10.24493443 -34.50689309 11.35271118 -40.10546875 15.47265625 Z " fill="#417C9D" transform="translate(1324.10546875,1331.52734375)"/>
<path d="M0 0 C3.81248426 -0.02887236 7.6249407 -0.04675492 11.4375 -0.0625 C12.52611328 -0.07087891 13.61472656 -0.07925781 14.73632812 -0.08789062 C15.77080078 -0.09111328 16.80527344 -0.09433594 17.87109375 -0.09765625 C18.82943115 -0.10289307 19.78776855 -0.10812988 20.77514648 -0.11352539 C23 0 23 0 24 1 C24.08726223 2.78071246 24.10699041 4.5648314 24.09765625 6.34765625 C24.09443359 7.42724609 24.09121094 8.50683594 24.08789062 9.61914062 C24.07532227 11.32360352 24.07532227 11.32360352 24.0625 13.0625 C24.05798828 14.20267578 24.05347656 15.34285156 24.04882812 16.51757812 C24.0369976 19.34507418 24.0190615 22.17254345 24 25 C29.61 25 35.22 25 41 25 C41 31.6 41 38.2 41 45 C35.39 45 29.78 45 24 45 C24 61.17 24 77.34 24 94 C29.28 94 34.56 94 40 94 C40 100.6 40 107.2 40 114 C36.20754515 114.1088743 32.41827736 114.18774222 28.625 114.25 C27.56410156 114.28351563 26.50320313 114.31703125 25.41015625 114.3515625 C16.85729868 114.45650554 9.94168113 113.01916002 3.0625 107.75 C-3.34806724 99.20257701 -3.15514316 88.85367729 -3.09765625 78.59375 C-3.0962413 77.6284436 -3.09482635 76.66313721 -3.09336853 75.6685791 C-3.0878108 72.61235335 -3.0752663 69.55620327 -3.0625 66.5 C-3.05747953 64.41666773 -3.05291758 62.3333343 -3.04882812 60.25 C-3.03785524 55.16663791 -3.02062011 50.08333174 -3 45 C-6.96 45 -10.92 45 -15 45 C-15 38.4 -15 31.8 -15 25 C-12.23307292 24.57682292 -9.46614583 24.15364583 -6.69921875 23.73046875 C-3.73656898 22.92870969 -2.85698921 22.37843603 -1 20 C-0.49844978 17.7856493 -0.49844978 17.7856493 -0.48828125 15.33203125 C-0.45283203 14.43935547 -0.41738281 13.54667969 -0.38085938 12.62695312 C-0.34702148 11.23379883 -0.34702148 11.23379883 -0.3125 9.8125 C-0.27833984 8.87212891 -0.24417969 7.93175781 -0.20898438 6.96289062 C-0.12651782 4.64204607 -0.05736597 2.32157852 0 0 Z " fill="#417C9D" transform="translate(1201,1300)"/>
<path d="M0 0 C8.58 0 17.16 0 26 0 C26.33 4.29 26.66 8.58 27 13 C27.53625 12.113125 28.0725 11.22625 28.625 10.3125 C32.12701293 5.07804252 36.09339785 2.36264086 42 0 C45.96 0 49.92 0 54 0 C54 7.92 54 15.84 54 24 C51.525 24.103125 49.05 24.20625 46.5 24.3125 C40.50175805 24.65161254 35.35735662 25.05870617 30 28 C27.31368387 31.61872808 26.61805678 34.24016931 26.56762695 38.70825195 C26.54783279 39.82903641 26.52803864 40.94982086 26.50764465 42.10456848 C26.49805977 43.9032563 26.49805977 43.9032563 26.48828125 45.73828125 C26.47033005 46.97418503 26.45237885 48.21008881 26.43388367 49.48344421 C26.38894759 52.75656242 26.35661884 56.02948364 26.33044434 59.30279541 C26.30057573 62.64797721 26.25381932 65.9928759 26.20898438 69.33789062 C26.12154276 75.89194486 26.06149534 82.44544542 26 89 C17.42 89 8.84 89 0 89 C0 59.63 0 30.26 0 0 Z " fill="#417C9D" transform="translate(1030,1325)"/>
<path d="M0 0 C2.66666667 0 5.33333333 0 8 0 C9.27875 -0.061875 10.5575 -0.12375 11.875 -0.1875 C15.67907109 -0.20855574 17.9099227 0.68244203 21 3 C21.60521484 2.27103516 21.60521484 2.27103516 22.22265625 1.52734375 C24.96927158 -0.83293448 27.34696694 -0.47296449 30.83984375 -0.359375 C33 0 33 0 35.5 1.8125 C37.82938547 5.20952048 38.12195572 7.87730566 38.09765625 11.88671875 C38.09443359 12.82451172 38.09121094 13.76230469 38.08789062 14.72851562 C38.07532227 16.19321289 38.07532227 16.19321289 38.0625 17.6875 C38.05798828 18.67556641 38.05347656 19.66363281 38.04882812 20.68164062 C38.03704303 23.12115474 38.02059011 25.56054689 38 28 C36.35 28 34.7 28 33 28 C32.97494385 27.44014404 32.9498877 26.88028809 32.92407227 26.3034668 C32.80796255 23.76458695 32.6853042 21.22606447 32.5625 18.6875 C32.52318359 17.80642578 32.48386719 16.92535156 32.44335938 16.01757812 C32.40146484 15.17001953 32.35957031 14.32246094 32.31640625 13.44921875 C32.27974854 12.66893311 32.24309082 11.88864746 32.20532227 11.0847168 C32.05874737 8.80670899 32.05874737 8.80670899 31 6 C27.71303767 5.20046862 26.28976808 4.90341064 23 6 C21.82530556 8.34938888 21.79965111 9.95073205 21.68359375 12.5703125 C21.64169922 13.46621094 21.59980469 14.36210938 21.55664062 15.28515625 C21.51732422 16.22230469 21.47800781 17.15945313 21.4375 18.125 C21.39431641 19.06988281 21.35113281 20.01476563 21.30664062 20.98828125 C21.20040928 23.32537092 21.09836824 25.6625683 21 28 C19.35 28 17.7 28 16 28 C15.98541748 27.40985107 15.97083496 26.81970215 15.95581055 26.21166992 C15.88131156 23.53628771 15.78466005 20.86215108 15.6875 18.1875 C15.66494141 17.25873047 15.64238281 16.32996094 15.61914062 15.37304688 C15.58369141 14.48037109 15.54824219 13.58769531 15.51171875 12.66796875 C15.48553467 11.84578857 15.45935059 11.0236084 15.43237305 10.17651367 C15.13136252 7.96203684 15.13136252 7.96203684 13.84301758 6.20825195 C11.53099092 4.45173321 11.53099092 4.45173321 6 5 C5.67 12.59 5.34 20.18 5 28 C3.35 28 1.7 28 0 28 C0 18.76 0 9.52 0 0 Z " fill="#9ABEC7" transform="translate(773,1476)"/>
<path d="M0 0 C1.65 0 3.3 0 5 0 C5 13.2 5 26.4 5 40 C2.66666667 40 0.33333333 40 -2 40 C-2.99 40.495 -2.99 40.495 -4 41 C-11.01971231 41.57538625 -11.01971231 41.57538625 -14.875 39.3125 C-19.21189601 34.5929367 -19.37822171 29.81791539 -19.25390625 23.66015625 C-18.8309235 19.22859854 -17.24075155 16.4316364 -14.375 13.125 C-10.70683593 11.3874486 -6.99419857 11.59903798 -3 12 C-2.34 12.33 -1.68 12.66 -1 13 C-0.67 8.71 -0.34 4.42 0 0 Z M-12 18 C-14.48508167 22.97016335 -14.10600051 26.72522834 -13 32 C-12.06756129 34.57951684 -12.06756129 34.57951684 -10 36 C-5.44238817 36.59946171 -5.44238817 36.59946171 -1.3125 34.91015625 C0.68507532 32.00297074 0.47096196 29.48456471 0.5 26 C0.5309375 24.7625 0.561875 23.525 0.59375 22.25 C0.3333114 18.85226876 0.3333114 18.85226876 -2.34375 17.0625 C-6.17118311 15.53152676 -8.65141599 15.62358554 -12 18 Z " fill="#9BBEC8" transform="translate(1048,1464)"/>
<path d="M0 0 C3.56169096 1.27203249 5.36156805 1.98431281 7.375 5.1875 C7.58125 5.785625 7.7875 6.38375 8 7 C7.34 7.66 6.68 8.32 6 9 C2.98694043 8.61121812 1.60314689 7.73543126 -1 6 C-3.76020996 5.62832816 -6.18852476 5.82149364 -9 6 C-11.28728734 7.83883881 -11.28728734 7.83883881 -11.125 10.625 C-11.08375 11.40875 -11.0425 12.1925 -11 13 C-10.27554687 13.25394531 -9.55109375 13.50789063 -8.8046875 13.76953125 C5.16083916 18.74125874 5.16083916 18.74125874 8 23 C8.68070827 26.76180887 8.8103616 30.44061892 7.01953125 33.88671875 C4.62314841 36.93196833 2.75087605 38.35040694 -1 39 C-7.50387235 39.73333866 -11.72669841 38.95497619 -17 35 C-17.9375 32.75 -17.9375 32.75 -18 31 C-16.68 30.34 -15.36 29.68 -14 29 C-13.566875 29.474375 -13.13375 29.94875 -12.6875 30.4375 C-10.09744131 32.83570249 -7.98134611 33.00133242 -4.5 33.25 C-1.12823716 33.25946598 -1.12823716 33.25946598 1 31.875 C2.47653728 29.1064926 1.58472109 26.99669559 1 24 C0.11957031 23.76925781 -0.76085938 23.53851562 -1.66796875 23.30078125 C-14.11692472 19.80512547 -14.11692472 19.80512547 -17 15 C-17.67311873 11.84151978 -17.73074015 9.1513169 -17 6 C-11.9999652 -0.31583343 -7.65402459 -0.65740088 0 0 Z " fill="#9BBEC8" transform="translate(1129,1466)"/>
<path d="M0 0 C3.56169096 1.27203249 5.36156805 1.98431281 7.375 5.1875 C7.58125 5.785625 7.7875 6.38375 8 7 C7.34 7.66 6.68 8.32 6 9 C2.98694043 8.61121812 1.60314689 7.73543126 -1 6 C-3.76020996 5.62832816 -6.18852476 5.82149364 -9 6 C-11.28728734 7.83883881 -11.28728734 7.83883881 -11.125 10.625 C-11.08375 11.40875 -11.0425 12.1925 -11 13 C-10.27554688 13.25394531 -9.55109375 13.50789063 -8.8046875 13.76953125 C5.16083916 18.74125874 5.16083916 18.74125874 8 23 C8.68070827 26.76180887 8.8103616 30.44061892 7.01953125 33.88671875 C4.62314841 36.93196833 2.75087605 38.35040694 -1 39 C-7.50387235 39.73333866 -11.72669841 38.95497619 -17 35 C-17.9375 32.75 -17.9375 32.75 -18 31 C-16.68 30.34 -15.36 29.68 -14 29 C-13.566875 29.474375 -13.13375 29.94875 -12.6875 30.4375 C-10.09744131 32.83570249 -7.98134611 33.00133242 -4.5 33.25 C-1.12823716 33.25946598 -1.12823716 33.25946598 1 31.875 C2.47653728 29.1064926 1.58472109 26.99669559 1 24 C0.11957031 23.76925781 -0.76085937 23.53851562 -1.66796875 23.30078125 C-14.11692472 19.80512547 -14.11692472 19.80512547 -17 15 C-17.67311873 11.84151978 -17.73074015 9.1513169 -17 6 C-11.9999652 -0.31583343 -7.65402459 -0.65740088 0 0 Z " fill="#9BBEC8" transform="translate(955,1466)"/>
<path d="M0 0 C1.65 0 3.3 0 5 0 C5 0.66 5 1.32 5 2 C5.99 1.34 6.98 0.68 8 0 C11.3915846 -0.5461026 14.60763982 -0.54104628 18 0 C21.34625024 2.52676039 22.67977847 4.03933542 24 8 C25.00676527 20.36175711 25.00676527 20.36175711 22.1875 24.6875 C18.27322815 28.82544453 18.27322815 28.82544453 15.0625 29.265625 C14.381875 29.26046875 13.70125 29.2553125 13 29.25 C11.9790625 29.25773437 11.9790625 29.25773437 10.9375 29.265625 C9 29 9 29 6 27 C5.67 30.96 5.34 34.92 5 39 C3.35 39 1.7 39 0 39 C0 26.13 0 13.26 0 0 Z M5 7 C4.28012981 10.31455604 4.28012981 10.31455604 4.5 14 C4.5103125 15.2375 4.520625 16.475 4.53125 17.75 C4.74572035 20.93149411 4.74572035 20.93149411 6.3125 22.9140625 C9.17758208 24.75779588 11.70956813 24.35254627 15 24 C17.61593153 22.16884793 17.96989455 21.09031634 19 18 C19.48627063 13.67139423 19.80139263 10.18724834 17.3125 6.5 C12.51412521 3.38754068 9.4966327 3.31824308 5 7 Z " fill="#9BBEC8" transform="translate(1148,1476)"/>
<path d="M0 0 C1.65 0 3.3 0 5 0 C5.33 0.66 5.66 1.32 6 2 C6.99 1.34 7.98 0.68 9 0 C12.11667538 -0.67082727 14.88345881 -0.67958649 18 0 C21.48392059 2.30818755 23.4202912 5.19536977 24.69140625 9.15234375 C25.63958201 14.8314175 24.63186938 19.89947796 22 25 C19.13192453 28.26641929 17.76859471 28.91909529 13.4375 29.375 C10 29 10 29 6 27 C5.67 30.96 5.34 34.92 5 39 C3.35 39 1.7 39 0 39 C0 26.13 0 13.26 0 0 Z M6 6 C4.58485426 8.83029148 4.79219008 11.28379133 4.75 14.4375 C4.72421875 15.59121094 4.6984375 16.74492188 4.671875 17.93359375 C4.74842664 20.9563649 4.74842664 20.9563649 6.30078125 22.8828125 C9.20885831 24.7947896 11.63975771 24.41266133 15 24 C17.66177841 22.84074462 17.66177841 22.84074462 19 20 C19.89339083 14.52165999 20.00424747 10.42268391 16.75 5.8125 C12.74613226 3.17358717 9.92616237 3.56307163 6 6 Z " fill="#9BBEC8" transform="translate(823,1476)"/>
<path d="M0 0 C3.80634156 1.83520039 5.4868474 2.97369479 7.375 6.75 C7.58125 7.4925 7.7875 8.235 8 9 C6.35 9.66 4.7 10.32 3 11 C2.505 10.175 2.01 9.35 1.5 8.5 C-1.11618052 5.88381948 -1.53387377 5.5689996 -5 5.375 C-8.30520577 5.58426815 -8.87344442 5.88317947 -11.4375 8.25 C-14.46084726 13.57109118 -14.53476577 18.98849512 -14 25 C-13.26647234 27.64832065 -12.34651379 29.56591738 -11 32 C-7.97562661 33.5121867 -5.33758466 33.17263369 -2 33 C0.35460678 32.32575833 0.35460678 32.32575833 2 31 C2.33 30.01 2.66 29.02 3 28 C4.65 28.33 6.3 28.66 8 29 C7.70179167 32.57849992 7.25754642 33.76226484 4.5625 36.25 C-0.03014284 39.38643901 -3.52530551 39.50777099 -9 39 C-13.71878688 37.30835942 -16.20582817 35.13951382 -19 31 C-21.26323822 24.21028535 -21.36524156 13.78882698 -18.375 7.25 C-13.91317407 0.24741209 -7.87416478 -1.26549077 0 0 Z " fill="#9BBEC8" transform="translate(722,1466)"/>
<path d="M0 0 C3.25204941 1.79194559 4.50298243 3.12430237 6.3125 6.3125 C7 9 7 9 7 16 C-2.405 16.495 -2.405 16.495 -12 17 C-10.66436384 21.94463635 -10.66436384 21.94463635 -8 23 C-3.20128976 23.50644046 -3.20128976 23.50644046 0.9375 21.5 C1.288125 21.005 1.63875 20.51 2 20 C3.32 20.66 4.64 21.32 6 22 C5.0195412 24.58484592 4.06077857 25.94843031 1.9375 27.75 C-2.13565356 29.48325684 -5.64125549 29.82110152 -10 29 C-13.31597773 27.2928335 -15.42584515 24.93952612 -17.375 21.75 C-18.91384408 14.97908606 -18.41246048 9.78225264 -15.16796875 3.62890625 C-11.50516761 -1.47941507 -5.61054771 -0.66537974 0 0 Z M-12 8 C-12.33 9.32 -12.66 10.64 -13 12 C-8.05 12 -3.1 12 2 12 C0.80236607 8.33601531 0.80236607 8.33601531 -1 5 C-5.9879992 2.93973946 -8.40558698 4.20019195 -12 8 Z " fill="#9BBEC9" transform="translate(1262,1476)"/>
<path d="M0 0 C3.16620095 2.18618637 3.7896387 3.36891611 5 7 C5.07973476 8.33525717 5.10771338 9.67412083 5.09765625 11.01171875 C5.09443359 11.76904297 5.09121094 12.52636719 5.08789062 13.30664062 C5.07951172 14.09232422 5.07113281 14.87800781 5.0625 15.6875 C5.05798828 16.48478516 5.05347656 17.28207031 5.04882812 18.10351562 C5.0370585 20.06904257 5.01912348 22.03453085 5 24 C5.99 24 6.98 24 8 24 C8 25.32 8 26.64 8 28 C4.66666667 28 1.33333333 28 -2 28 C-2.66 28.33 -3.32 28.66 -4 29 C-8.44363935 29.36423273 -10.9714545 29.49284472 -15 27.5625 C-17.55687424 24.28650488 -17.52341324 22.1730067 -17.46875 18.12109375 C-16.89349726 15.51807511 -16.08835141 14.62044249 -14 13 C-10.85069107 11.95023036 -8.61185544 11.89868405 -5.3125 11.9375 C-4.31863281 11.94652344 -3.32476563 11.95554687 -2.30078125 11.96484375 C-1.16189453 11.98224609 -1.16189453 11.98224609 0 12 C-0.66 10.02 -1.32 8.04 -2 6 C-5.66305234 5.25073929 -8.42355152 4.7619986 -12 6 C-12 6.66 -12 7.32 -12 8 C-13.32 7.34 -14.64 6.68 -16 6 C-12.87684558 -1.20727944 -7.01865542 -0.87338591 0 0 Z M-12 18 C-11.67 19.98 -11.34 21.96 -11 24 C-7.67707176 25.04434887 -6.43241099 25.2162055 -3.25 23.625 C-1.13601104 22.18908852 -1.13601104 22.18908852 0 21 C0.04063832 19.33382885 0.042721 17.66611905 0 16 C-1.4370809 15.94577053 -2.87475462 15.90710277 -4.3125 15.875 C-5.51326172 15.84019531 -5.51326172 15.84019531 -6.73828125 15.8046875 C-9.28388576 15.84182678 -9.28388576 15.84182678 -12 18 Z " fill="#9BBEC8" transform="translate(1198,1476)"/>
<path d="M0 0 C2.65563802 1.8968843 3.57242527 3.14485055 5 6 C5.08308638 7.37548156 5.10736016 8.75485796 5.09765625 10.1328125 C5.09443359 10.93847656 5.09121094 11.74414062 5.08789062 12.57421875 C5.07951172 13.41597656 5.07113281 14.25773437 5.0625 15.125 C5.05798828 15.97449219 5.05347656 16.82398438 5.04882812 17.69921875 C5.03702874 19.79950909 5.01909306 21.8997633 5 24 C5.99 24 6.98 24 8 24 C8 25.32 8 26.64 8 28 C5.125 28.125 5.125 28.125 2 28 C1.34 27.34 0.68 26.68 0 26 C-0.40476562 26.4846875 -0.80953125 26.969375 -1.2265625 27.46875 C-3.95783878 29.8270326 -6.28237902 29.54099557 -9.76953125 29.41015625 C-12 29 -12 29 -15.0625 26.9375 C-17.492403 23.25345351 -17.70930433 21.33463758 -17 17 C-15.13291495 14.63502561 -13.67938569 13.33969285 -11 12 C-9.12620395 11.92966231 -7.24998898 11.9156978 -5.375 11.9375 C-3.87066406 11.95103516 -3.87066406 11.95103516 -2.3359375 11.96484375 C-1.56507813 11.97644531 -0.79421875 11.98804688 0 12 C-0.66 10.02 -1.32 8.04 -2 6 C-4.80764728 5.22573891 -4.80764728 5.22573891 -8 5 C-10.36290685 6.31135412 -10.36290685 6.31135412 -12 8 C-13.32 7.34 -14.64 6.68 -16 6 C-12.87974856 -1.20058025 -7.01574232 -0.88354176 0 0 Z M-10.79296875 17.3828125 C-12.20561065 18.93914932 -12.20561065 18.93914932 -12 21.0625 C-11.10851063 23.2010405 -11.10851063 23.2010405 -8.75 24.375 C-5.43432926 25.12856153 -3.97513164 24.5300677 -1 23 C-0.67 20.69 -0.34 18.38 0 16 C-1.43655854 15.91868537 -2.8744483 15.86066441 -4.3125 15.8125 C-5.11300781 15.77769531 -5.91351562 15.74289062 -6.73828125 15.70703125 C-9.07326568 15.81634551 -9.07326568 15.81634551 -10.79296875 17.3828125 Z " fill="#9BBEC8" transform="translate(755,1476)"/>
<path d="M0 0 C1.65 0 3.3 0 5 0 C5.04898438 1.15757813 5.09796875 2.31515625 5.1484375 3.5078125 C5.22351478 5.0468967 5.29906043 6.5859581 5.375 8.125 C5.4059375 8.88554688 5.436875 9.64609375 5.46875 10.4296875 C5.702369 14.94632158 6.32654117 18.74152347 8 23 C12.14093698 23.20970559 12.14093698 23.20970559 16 22 C16.33 14.74 16.66 7.48 17 0 C18.98 0 20.96 0 23 0 C23 9.24 23 18.48 23 28 C20.36 28 17.72 28 15 28 C14.67 28.33 14.34 28.66 14 29 C6.92383292 29.70761671 6.92383292 29.70761671 3.0625 26.75 C0.173733 22.89831066 -0.12800499 19.96877823 -0.09765625 15.234375 C-0.09443359 14.34492187 -0.09121094 13.45546875 -0.08789062 12.5390625 C-0.07532227 11.15847656 -0.07532227 11.15847656 -0.0625 9.75 C-0.05798828 8.81414062 -0.05347656 7.87828125 -0.04882812 6.9140625 C-0.03706918 4.60930959 -0.02063426 2.30468773 0 0 Z " fill="#9BBEC8" transform="translate(996,1476)"/>
<path d="M0 0 C1.65 0 3.3 0 5 0 C7.66666667 6.66666667 10.33333333 13.33333333 13 20 C15.31 13.4 17.62 6.8 20 0 C21.65 0 23.3 0 25 0 C24.43396095 4.95935467 23.35906677 9.2546599 21.6015625 13.921875 C21.36593597 14.54854065 21.13030945 15.1752063 20.88754272 15.82086182 C20.39182561 17.13307225 19.89248103 18.44391765 19.38964844 19.75341797 C18.62322795 21.75462701 17.87351657 23.76156698 17.125 25.76953125 C16.63901006 27.0498551 16.15206407 28.32981654 15.6640625 29.609375 C15.00591553 31.3413916 15.00591553 31.3413916 14.33447266 33.10839844 C13.11693329 35.74662315 12.33197495 37.3076652 10 39 C6.8125 39.1875 6.8125 39.1875 4 39 C4 37.68 4 36.36 4 35 C5.32 35 6.64 35 8 35 C10.08877195 27.73653173 7.22185846 22.05701768 4.5625 15.25 C3.70567312 13.00671774 2.85262139 10.76198878 2.00390625 8.515625 C1.62049072 7.52852539 1.2370752 6.54142578 0.84204102 5.52441406 C0 3 0 3 0 0 Z " fill="#9DBFC9" transform="translate(1062,1476)"/>
<path d="M0 0 C1.65 0 3.3 0 5 0 C5.02505615 0.62567871 5.0501123 1.25135742 5.07592773 1.89599609 C5.19175273 4.72254619 5.31453985 7.54875169 5.4375 10.375 C5.47681641 11.35984375 5.51613281 12.3446875 5.55664062 13.359375 C5.59853516 14.30039063 5.64042969 15.24140625 5.68359375 16.2109375 C5.72025146 17.08024902 5.75690918 17.94956055 5.79467773 18.84521484 C5.87401544 21.0483262 5.87401544 21.0483262 7 23 C10.41642759 23.25015873 10.41642759 23.25015873 14 23 C16.08745045 19.86882433 16.27653996 18.93053776 16.4140625 15.33203125 C16.45273437 14.43935547 16.49140625 13.54667969 16.53125 12.62695312 C16.57765625 11.23379883 16.57765625 11.23379883 16.625 9.8125 C16.66367187 8.87212891 16.70234375 7.93175781 16.7421875 6.96289062 C16.83643187 4.6421229 16.92204025 2.32136252 17 0 C18.65 0 20.3 0 22 0 C22 9.24 22 18.48 22 28 C19.66666667 28 17.33333333 28 15 28 C14.34 28.33 13.68 28.66 13 29 C6.06629537 29.68200373 6.06629537 29.68200373 2.2578125 27.24609375 C-1.19945967 22.27551732 -0.53648302 17.58342225 -0.3125 11.6875 C-0.28994141 10.56537109 -0.26738281 9.44324219 -0.24414062 8.28710938 C-0.18533776 5.52337464 -0.10320401 2.76237446 0 0 Z " fill="#9BBEC8" transform="translate(858,1476)"/>
<path d="M0 0 C2.35493914 1.45422524 3.34597718 2.71858921 5 5 C4.34 5.66 3.68 6.32 3 7 C1.3125 6.6875 1.3125 6.6875 -1 6 C-3.33094534 5.6503582 -5.66404762 5.31445513 -8 5 C-8.33 6.65 -8.66 8.3 -9 10 C-8.24074219 10.18175781 -7.48148438 10.36351562 -6.69921875 10.55078125 C-5.70535156 10.80214844 -4.71148438 11.05351563 -3.6875 11.3125 C-2.70136719 11.55613281 -1.71523438 11.79976562 -0.69921875 12.05078125 C2.05637058 13.01982352 3.31553008 13.64174211 5 16 C5.77669903 22.99029126 5.77669903 22.99029126 3.125 26.4375 C-1.103109 29.54640368 -4.86717723 29.63622929 -10 29 C-13.5625 27.1875 -13.5625 27.1875 -16 25 C-16 24.01 -16 23.02 -16 22 C-14.68 21.34 -13.36 20.68 -12 20 C-11.67 20.495 -11.34 20.99 -11 21.5 C-7.82427253 23.88179561 -4.89753934 23.19168226 -1 23 C-1.33 21.35 -1.66 19.7 -2 18 C-2.60328125 17.90203125 -3.2065625 17.8040625 -3.828125 17.703125 C-7.48323929 17.01926491 -10.39905164 16.3810892 -13.5625 14.375 C-15.663819 10.90325557 -15.75268832 7.9495903 -15 4 C-12.05522386 -1.60909741 -5.56400034 -0.99592314 0 0 Z " fill="#9BBFCA" transform="translate(906,1476)"/>
<path d="M0 0 C2.27677176 1.46219342 3.34776031 2.79701375 5 5 C4.34 5.66 3.68 6.32 3 7 C1.3125 6.6875 1.3125 6.6875 -1 6 C-3.33094534 5.6503582 -5.66404762 5.31445513 -8 5 C-8.66 6.65 -9.32 8.3 -10 10 C-9.16855469 10.18175781 -8.33710937 10.36351562 -7.48046875 10.55078125 C-6.39378906 10.80214844 -5.30710937 11.05351563 -4.1875 11.3125 C-2.56908203 11.67794922 -2.56908203 11.67794922 -0.91796875 12.05078125 C1.97608113 12.99221916 3.1957049 13.60840079 5 16 C6.00192482 18.92870332 6.09374971 20.6062512 5.375 23.625 C3.5744428 26.73505335 2.3453469 27.64762572 -1 29 C-5.68912447 29.70942474 -9.53817233 29.67970634 -13.5625 27 C-14.366875 26.34 -15.17125 25.68 -16 25 C-15.6875 23.0625 -15.6875 23.0625 -15 21 C-14.01 20.67 -13.02 20.34 -12 20 C-11.67 20.495 -11.34 20.99 -11 21.5 C-7.82427253 23.88179561 -4.89753934 23.19168226 -1 23 C-1 21.35 -1 19.7 -1 18 C-1.75925781 17.81824219 -2.51851562 17.63648438 -3.30078125 17.44921875 C-4.29464844 17.19785156 -5.28851562 16.94648437 -6.3125 16.6875 C-7.29863281 16.44386719 -8.28476563 16.20023438 -9.30078125 15.94921875 C-12.0573984 14.97981503 -13.31164469 14.35584462 -15 12 C-15.86877828 5.15837104 -15.86877828 5.15837104 -13.125 1.5 C-8.71525523 -0.61667749 -4.80320726 -0.95276734 0 0 Z " fill="#9BBFC9" transform="translate(1293,1476)"/>
<path d="M0 0 C3.61691275 2.09780939 4.68291409 3.04874226 6 7 C4.35 7.66 2.7 8.32 1 9 C0.46375 8.319375 -0.0725 7.63875 -0.625 6.9375 C-2.89346479 4.65008671 -2.89346479 4.65008671 -6.125 5.125 C-9.09681373 5.78308824 -9.09681373 5.78308824 -11 8 C-11.35827142 10.79345078 -11.35827142 10.79345078 -11.3125 13.9375 C-11.32925781 14.99839844 -11.34601563 16.05929687 -11.36328125 17.15234375 C-11.23085092 19.98895044 -11.23085092 19.98895044 -9.66796875 21.85546875 C-7.06663709 23.64045746 -5.06228779 23.38278597 -2 23 C-0.9805881 22.01979625 0.02246356 21.02196992 1 20 C3.125 20.1875 3.125 20.1875 5 21 C5.33 21.66 5.66 22.32 6 23 C2.375 27.875 2.375 27.875 -1 29 C-4.75500746 29.50066766 -8.38149625 29.79217905 -11.8515625 28.09375 C-15.53140209 25.26589298 -17.10433798 22.4783101 -18 18 C-18.59256917 11.48173914 -16.88835369 7.06857475 -13.5 1.5625 C-9.29502551 -1.06560906 -4.80427711 -0.71886221 0 0 Z " fill="#9BBEC8" transform="translate(1231,1476)"/>
<path d="M0 0 C1.65 0 3.3 0 5 0 C5 2.31 5 4.62 5 7 C6.98 7 8.96 7 11 7 C11 8.65 11 10.3 11 12 C9.02 12 7.04 12 5 12 C5 18.27 5 24.54 5 31 C6.65 31 8.3 31 10 31 C10 32.32 10 33.64 10 35 C8.54257537 35.08096803 7.08387193 35.13917774 5.625 35.1875 C4.81289063 35.22230469 4.00078125 35.25710938 3.1640625 35.29296875 C2.44992187 35.19628906 1.73578125 35.09960938 1 35 C-1.13604308 31.79593538 -1.24208908 31.00399253 -1.1953125 27.33203125 C-1.18886719 26.43935547 -1.18242188 25.54667969 -1.17578125 24.62695312 C-1.15902344 23.69818359 -1.14226563 22.76941406 -1.125 21.8125 C-1.11597656 20.87212891 -1.10695313 19.93175781 -1.09765625 18.96289062 C-1.07409056 16.64167032 -1.04119116 14.32096356 -1 12 C-2.32 12 -3.64 12 -5 12 C-5 10.35 -5 8.7 -5 7 C-3.68 6.67 -2.36 6.34 -1 6 C-0.67 4.02 -0.34 2.04 0 0 Z " fill="#9CBFC8" transform="translate(976,1469)"/>
</svg>
