<?xml version="1.0" encoding="UTF-8"?>
<svg version="1.1" xmlns="http://www.w3.org/2000/svg" viewBox="150 360 1720 920" preserveAspectRatio="xMinYMin meet">
<path d="M0 0 C4.15080879 -0.03254139 8.30157269 -0.05697009 12.45247459 -0.07374382 C13.88211931 -0.08071122 15.31175428 -0.09040706 16.7413578 -0.10330391 C47.04658564 -0.36831824 75.13704237 9.48402172 98.30627441 29.04443359 C99.72166504 30.21425781 99.72166504 30.21425781 101.16564941 31.40771484 C124.82707536 51.82739176 139.11250847 82.07249064 142.09010315 112.97183228 C142.54234753 119.39991464 142.53049708 125.8453458 142.58752441 132.28662109 C142.60554377 133.95126214 142.6239222 135.61589932 142.6426239 137.28053284 C142.692709 141.86097799 142.73676346 146.44146237 142.77920151 151.0219841 C142.80638037 153.93077317 142.83477057 156.83954794 142.86355591 159.74832153 C142.95853911 169.3617841 143.04979575 178.97527269 143.13636875 188.58881474 C143.24252773 200.37375765 143.35714696 212.15857724 143.47961426 223.94335938 C143.6187601 237.33931167 143.74913241 250.73532266 143.87022972 264.13145065 C143.93722986 271.52249142 144.00765835 278.91346319 144.08703613 286.30438232 C144.15537583 292.67356234 144.21583507 299.04276194 144.2668913 305.41210479 C144.29341671 308.6931644 144.32453551 311.97406217 144.36296654 315.25500679 C144.80214566 353.31158839 144.80214566 353.31158839 139.61877441 369.79443359 C139.35677246 370.6602002 139.09477051 371.5259668 138.8248291 372.41796875 C131.67465261 395.32470301 118.55384709 417.21008086 99.30627441 432.04443359 C98.52381348 432.66318359 97.74135254 433.28193359 96.93518066 433.91943359 C79.90415465 446.87617255 61.19831 454.83145848 40.30627441 459.04443359 C39.4431665 459.21934326 38.58005859 459.39425293 37.6907959 459.57446289 C33.24407752 460.19192902 28.86147164 460.26135236 24.37658691 460.32568359 C23.33671127 460.34377579 22.29683563 460.36186798 21.22544861 460.38050842 C17.62745633 460.44067476 14.02940112 460.49296177 10.43127441 460.54443359 C9.15340057 460.56400116 7.87552673 460.58356873 6.55892944 460.60372925 C-23.69295316 461.06632308 -53.94784823 461.31361252 -84.20200348 461.5730896 C-88.0632419 461.60634802 -91.92447393 461.64028058 -95.78570557 461.67431641 C-109.40108439 461.79317331 -123.01643747 461.89782706 -136.63211441 461.97610664 C-142.87388568 462.01234051 -149.11548787 462.0551336 -155.3571167 462.11102295 C-161.64187615 462.16710275 -167.92656926 462.20783227 -174.21150398 462.23814201 C-176.55487897 462.25197712 -178.89823039 462.27102649 -181.24151421 462.29590034 C-220.15429188 462.69788594 -253.25318303 451.94538896 -281.69372559 424.48193359 C-302.53915142 403.65671661 -315.46041849 373.45602229 -315.99035645 344.07446289 C-316.00962503 343.18277971 -316.02889362 342.29109653 -316.04874611 341.37239265 C-316.11122692 338.39205733 -316.16653225 335.41164301 -316.22106934 332.43115234 C-316.24148726 331.3857749 -316.26190517 330.34039745 -316.28294182 329.2633419 C-316.83137207 301.13053936 -317.04968151 272.99394015 -317.25622559 244.85693359 C-317.26621882 243.50519558 -317.27621718 242.1534576 -317.28622055 240.80171967 C-317.38574786 227.32200623 -317.48054965 213.84226774 -317.5688982 200.36247635 C-317.64133439 189.32119941 -317.72322401 178.28015025 -317.82708073 167.23912334 C-317.88791978 160.69311362 -317.93536095 154.14712825 -317.96854305 147.60091877 C-317.9865845 144.09627538 -318.01057358 140.59199669 -318.05288696 137.08755493 C-318.46314813 100.13896693 -309.65176073 67.18899321 -283.45153809 39.82958984 C-264.0075395 20.19280374 -240.87787391 7.78844003 -213.69372559 3.04443359 C-212.7415918 2.86952393 -211.78945801 2.69461426 -210.80847168 2.5144043 C-204.83577885 1.68661608 -198.78235903 1.82396547 -192.76403809 1.76318359 C-191.3125415 1.74525145 -189.86104926 1.72696478 -188.40956116 1.70835876 C-184.39563225 1.65829822 -180.38165627 1.61445099 -176.36764145 1.57191086 C-173.80758754 1.54431353 -171.24755873 1.51501897 -168.68753052 1.48513794 C-134.92056952 1.09127167 -101.15245184 0.80082047 -67.3844223 0.51577759 C-63.42023995 0.48231081 -59.45606134 0.44840994 -55.49188232 0.41455078 C-39.91366846 0.28240682 -24.3354268 0.16496426 -8.75697327 0.06503296 C-5.83796244 0.04540354 -2.91898447 0.02318952 0 0 Z " fill="#5994AD" transform="translate(465.6937255859375,768.95556640625)"/>
<path d="M0 0 C0.33 0 0.66 0 1 0 C2.00967493 30.95431733 2.66108918 61.90707277 3.04321671 92.8753767 C3.14987656 101.42582669 3.27830252 109.9749059 3.45751953 118.52416992 C3.61598733 126.08519556 3.73484869 133.64564078 3.80661082 141.20800477 C3.84557093 145.17967725 3.90298659 149.14892528 4.00839996 153.11943626 C4.73860602 181.48119954 4.73860602 181.48119954 -2.21191406 189.63012695 C-4.06250674 191.54004678 -5.99366645 193.2418667 -8 195 C-9.90167305 197.1119376 -11.69897875 199.30224817 -13.5 201.5 C-14.41857418 202.57982846 -15.33891416 203.65815955 -16.26171875 204.734375 C-19.03094219 208.00754013 -21.68040916 211.36615717 -24.3125 214.75 C-28.99059875 220.76229184 -33.79986032 226.65588294 -38.65405273 232.52661133 C-44.81647545 239.97972628 -50.91712894 247.48189219 -57 255 C-57.79664063 255.98226563 -58.59328125 256.96453125 -59.4140625 257.9765625 C-63.10408933 262.55109014 -66.64341933 267.17491529 -70 272 C-74.35723482 270.41649186 -76.82291549 267.02060993 -79.6875 263.5625 C-80.21786865 262.93287354 -80.7482373 262.30324707 -81.29467773 261.65454102 C-85.15127435 257.06302232 -88.94904595 252.42306598 -92.73046875 247.76953125 C-97.08505794 242.45558334 -101.55078435 237.23473234 -106 232 C-111.9600827 224.98765442 -117.87758795 217.95039195 -123.6875 210.8125 C-126.7157524 207.12949033 -129.80227267 203.49772974 -132.88989258 199.86450195 C-137.3288881 194.6321273 -141.67586039 189.32776708 -146 184 C-150.19449712 185.53669365 -152.29563843 188.60813377 -154.875 192.0625 C-155.84959237 193.33614538 -156.82625202 194.60821083 -157.8046875 195.87890625 C-158.3212793 196.55066895 -158.83787109 197.22243164 -159.37011719 197.91455078 C-162.17435732 201.5026004 -165.09017692 204.99747201 -168 208.5 C-172.30488706 213.69378112 -176.54672483 218.92443656 -180.6875 224.25 C-184.1926859 228.75666759 -187.78789138 233.16221088 -191.5 237.5 C-196.69310077 243.5708857 -201.62145106 249.82628198 -206.53369141 256.125 C-209.21528882 259.55401567 -211.91660537 262.96712915 -214.625 266.375 C-215.40701782 267.36669189 -215.40701782 267.36669189 -216.20483398 268.37841797 C-217.44656779 269.9378046 -218.72007956 271.47180068 -220 273 C-220.33 273 -220.66 273 -221 273 C-221.07459434 267.8541896 -221.14727207 262.70835448 -221.21875 257.5625 C-221.23007336 256.74802021 -221.24139671 255.93354042 -221.2530632 255.09437943 C-221.39370898 244.88779773 -221.51793571 234.68122693 -221.61376953 224.47412109 C-221.62299753 223.49893461 -221.63222553 222.52374813 -221.64173317 221.51901054 C-221.67990021 217.46912394 -221.71791535 213.41923679 -221.75445938 209.36933517 C-221.8730032 196.38947658 -222.05546294 183.41325185 -222.32625961 170.43564987 C-222.5067367 161.68252606 -222.64045362 152.92941895 -222.74274063 144.17503738 C-222.80663039 138.89392246 -222.8940643 133.61552962 -223.0378418 128.3359375 C-223.17342157 123.33743944 -223.24579998 118.34175835 -223.27284622 113.34153366 C-223.29364118 111.51129084 -223.33669011 109.68112821 -223.40491867 107.85203934 C-223.83175103 95.98085248 -221.93483268 89.07230122 -213.89491844 80.10735512 C-212.77673661 78.91686448 -211.64825913 77.73593023 -210.50798607 76.56658173 C-208.59299828 74.57718346 -206.87297648 72.45937776 -205.16796875 70.2890625 C-204.66458984 69.6703125 -204.16121094 69.0515625 -203.64257812 68.4140625 C-199.11906589 62.85226759 -194.61272326 57.27828013 -190.14453125 51.671875 C-187.90129084 48.8770181 -185.63935364 46.09806375 -183.375 43.3203125 C-178.24998329 37.03267626 -173.17580814 30.71246941 -168.18676758 24.31640625 C-163.92134147 18.86314983 -159.54710774 13.50010614 -155.15039062 8.15234375 C-154.62380859 7.50910156 -154.09722656 6.86585938 -153.5546875 6.203125 C-153.08530762 5.63239258 -152.61592773 5.06166016 -152.13232422 4.47363281 C-150.91144939 2.98152438 -150.91144939 2.98152438 -150 1 C-149.01 1 -148.02 1 -147 1 C-145.22707618 3.0010015 -143.64573161 4.98107573 -142.0625 7.125 C-141.07955738 8.41744879 -140.09378945 9.70775285 -139.10546875 10.99609375 C-138.5954834 11.66108887 -138.08549805 12.32608398 -137.56005859 13.01123047 C-135.09488623 16.15384301 -132.49303697 19.17201497 -129.875 22.1875 C-125.59149477 27.13436785 -121.4027667 32.14234336 -117.27734375 37.22265625 C-114.71795946 40.34396367 -112.11406209 43.4245003 -109.5 46.5 C-105.37892208 51.34954051 -101.33008517 56.25160964 -97.3125 61.1875 C-94.28310002 64.87190538 -91.20144663 68.5104746 -88.10131836 72.13549805 C-85.82438092 74.80615843 -83.59231085 77.49597441 -81.44140625 80.26953125 C-80.65636719 81.27371094 -79.87132812 82.27789063 -79.0625 83.3125 C-78.37285156 84.21613281 -77.68320312 85.11976563 -76.97265625 86.05078125 C-74.98799244 88.468579 -74.98799244 88.468579 -71 88 C-69.34335218 86.66884024 -69.34335218 86.66884024 -67.93359375 84.7734375 C-67.3713208 84.07831055 -66.80904785 83.38318359 -66.22973633 82.66699219 C-65.63829834 81.91063477 -65.04686035 81.15427734 -64.4375 80.375 C-63.81834717 79.60317383 -63.19919434 78.83134766 -62.5612793 78.03613281 C-60.69380059 75.70124373 -58.84410292 73.35337847 -57 71 C-56.48920898 70.34999023 -55.97841797 69.69998047 -55.45214844 69.03027344 C-53.62230827 66.7001352 -51.79412071 64.36878727 -49.97436523 62.03076172 C-46.90816655 58.10499164 -43.73860043 54.28437411 -40.5 50.5 C-36.28903241 45.57838973 -32.2443775 40.55204524 -28.265625 35.44140625 C-24.20431937 30.23283914 -20.04239447 25.11069887 -15.86279297 19.99682617 C-11.60861154 14.78019201 -7.44181955 9.49973773 -3.33789062 4.1640625 C-2.2474548 2.75853857 -1.12694624 1.37642289 0 0 Z " fill="#C2DCE0" transform="translate(526,863)"/>
<path d="M0 0 C12.87 0 25.74 0 39 0 C42.4464821 13.78592841 42.4464821 13.78592841 43.79003906 20.68554688 C43.94504379 21.46827972 44.10004852 22.25101257 44.25975037 23.0574646 C44.76460617 25.61066447 45.26516737 28.16468473 45.765625 30.71875 C46.1254605 32.54354735 46.48555332 34.36829397 46.84588623 36.19299316 C47.79281876 40.99210283 48.73604263 45.79193419 49.67852783 50.59191895 C50.61268453 55.34561222 51.55073496 60.09853682 52.48828125 64.8515625 C57.03088804 87.89352171 61.53052945 110.94374905 66 134 C66.12331255 133.461288 66.2466251 132.92257601 66.37367439 132.36753941 C69.40358358 119.13128121 72.43498664 105.89536588 75.46791267 92.65979862 C76.93469407 86.2586252 78.40101395 79.85734684 79.86621094 73.45581055 C81.28505705 67.25686744 82.70520438 61.05822366 84.12618637 54.85976982 C84.66315206 52.51648619 85.19967951 50.17310209 85.73572159 47.82960701 C89.38874569 31.86093554 93.15506172 15.92365898 97 0 C111.52 0 126.04 0 141 0 C145.59559799 17.23349245 145.59559799 17.23349245 147.50195312 25.59692383 C147.72044418 26.54555801 147.93893524 27.4941922 148.16404724 28.47157288 C148.87229323 31.54948808 149.5768373 34.62823672 150.28125 37.70703125 C150.78140533 39.8845445 151.28177574 42.06200836 151.78234863 44.23942566 C152.82604605 48.78173271 153.86806656 53.3244197 154.90869141 57.86743164 C156.23097082 63.64002772 157.55605522 69.41197489 158.8822403 75.18367481 C160.16199747 80.75374904 161.44046593 86.3241188 162.71875 91.89453125 C162.95670792 92.93113199 163.19466583 93.96773273 163.43983459 95.03574562 C166.34123977 107.6800581 169.20569895 120.33156584 172 133 C174.08136448 124.28839929 175.92456878 115.5504999 177.60541344 106.75317955 C178.0185663 104.59125649 178.43480448 102.42994562 178.85176086 100.26875305 C179.44890068 97.17267817 180.04503672 94.07641288 180.64031982 90.97998047 C186.48465348 60.59290138 192.56076248 30.26738372 199 0 C211.54 0 224.08 0 237 0 C235.8750001 10.12499913 235.8750001 10.12499913 234.9868927 13.93049622 C234.78700965 14.79842772 234.5871266 15.66635923 234.38118649 16.5605917 C234.16362981 17.48137036 233.94607313 18.40214903 233.72192383 19.35083008 C233.49042665 20.34921182 233.25892946 21.34759356 233.02041721 22.37622929 C232.25419108 25.67515932 231.48063419 28.97232399 230.70703125 32.26953125 C230.16260349 34.60700131 229.61863708 36.94457887 229.07510376 39.28225708 C227.62552534 45.51093745 226.16963951 51.738127 224.71235275 57.96500778 C223.21575692 64.36398895 221.72445167 70.76420271 220.23266602 77.16430664 C218.17308718 85.99817656 216.11156289 94.83158816 214.04748821 103.66440868 C211.26103171 115.58890505 208.48403202 127.51551752 205.72319221 139.44597054 C204.73548549 143.71314725 203.74586858 147.97988136 202.75630093 152.24662685 C202.02769755 155.38880698 201.3004589 158.53129306 200.57510376 161.67422485 C199.80207765 165.02187674 199.02472367 168.36849164 198.24609375 171.71484375 C198.02756744 172.66650421 197.80904114 173.61816467 197.58389282 174.59866333 C196.11420107 180.88579893 196.11420107 180.88579893 195 182 C193.58774954 182.0928726 192.17091066 182.11746772 190.75561523 182.11352539 C189.85475693 182.11344986 188.95389862 182.11337433 188.02574158 182.11329651 C187.04658279 182.10813522 186.06742401 182.10297394 185.05859375 182.09765625 C184.06118668 182.0962413 183.0637796 182.09482635 182.03614807 182.09336853 C178.83656876 182.08775114 175.63705831 182.07519571 172.4375 182.0625 C170.27408955 182.05748724 168.11067801 182.05292395 165.94726562 182.04882812 C160.63148598 182.03777607 155.31575008 182.02062472 150 182 C147.88565325 175.97936251 146.16807547 169.96898845 144.75097656 163.74951172 C144.54720398 162.87140335 144.3434314 161.99329498 144.13348389 161.08857727 C143.46502487 158.20322726 142.8027659 155.31649337 142.140625 152.4296875 C141.66879528 150.38680883 141.19659988 148.34401458 140.72406006 146.30130005 C139.48002036 140.91861987 138.24133281 135.53472138 137.00366211 130.15057373 C136.01304863 125.84515962 135.01870131 121.54061237 134.02413177 117.23611069 C128.61813348 93.83863114 123.2527952 70.43238567 118 47 C117.87710602 47.54311325 117.75421204 48.0862265 117.62759399 48.64579773 C110.67164261 79.37336894 103.62184002 110.07872976 96.47039795 140.76138306 C95.65471309 144.26115601 94.84071615 147.76131494 94.02813721 151.2618103 C93.06298808 155.41882069 92.09420221 159.57496663 91.12253952 163.73045921 C90.76158157 165.27664989 90.40184931 166.82312725 90.04338455 168.36989784 C89.55216596 170.48829227 89.05647512 172.60558959 88.55957031 174.72265625 C88.14206512 176.51328491 88.14206512 176.51328491 87.71612549 178.34008789 C87 181 87 181 86 182 C84.55710213 182.09295815 83.10970215 182.11746513 81.66381836 182.11352539 C80.7429393 182.11344986 79.82206024 182.11337433 78.87327576 182.11329651 C77.87224319 182.10813522 76.87121063 182.10297394 75.83984375 182.09765625 C74.82024063 182.0962413 73.80063751 182.09482635 72.75013733 182.09336853 C69.47922893 182.08775097 66.20838787 182.0751955 62.9375 182.0625 C60.72591244 182.05748726 58.51432382 182.05292396 56.30273438 182.04882812 C50.86846643 182.03777584 45.43423803 182.02102063 40 182 C31.90396594 146.44168242 23.81994422 110.8806481 15.7522583 75.31588745 C15.04187759 72.18459269 14.33127513 69.05334834 13.62060547 65.92211914 C11.37040154 56.00622721 9.12537664 46.08919958 6.89163208 36.16958618 C6.25836603 33.35814107 5.62258592 30.54728312 4.98458862 27.73690796 C4.11785641 23.91839097 3.25953908 20.09801368 2.40234375 16.27734375 C2.15359497 15.18677673 1.90484619 14.09620972 1.64855957 12.97259521 C1.42800903 11.98253479 1.2074585 10.99247437 0.98022461 9.97241211 C0.78915634 9.1250499 0.59808807 8.27768768 0.40122986 7.40464783 C0 5 0 5 0 0 Z " fill="#417C9D" transform="translate(630,855)"/>
<path d="M0 0 C12.87 0 25.74 0 39 0 C39.33 25.08 39.66 50.16 40 76 C41.65 73.03 43.3 70.06 45 67 C51.96508498 58.33428386 59.97062317 53.3765478 71 52 C83.78232819 51.05254524 95.35790525 52.52041658 105.5625 60.72265625 C116.54853572 70.98685308 120.5271713 85.63215589 121.08854866 100.31617928 C121.12175808 102.76161166 121.12391117 105.20500165 121.11352539 107.65063477 C121.11367142 108.56878464 121.11381744 109.48693451 121.1139679 110.4329071 C121.11327711 113.43576508 121.10552419 116.43855925 121.09765625 119.44140625 C121.0957891 121.536046 121.0943666 123.63068619 121.09336853 125.72532654 C121.08956673 131.21450017 121.0797566 136.70364696 121.06866455 142.19281006 C121.05839998 147.80366656 121.05386013 153.41452743 121.04882812 159.02539062 C121.03813206 170.01694072 121.02055438 181.00846392 121 192 C108.13 192 95.26 192 82 192 C81.95101562 186.08707031 81.90203125 180.17414063 81.8515625 174.08203125 C81.81613437 170.31313499 81.78015055 166.54426013 81.7421875 162.77539062 C81.68211887 156.80675488 81.62399411 150.83814873 81.578125 144.86938477 C81.5409723 140.05171678 81.49453542 135.23421595 81.44193649 130.41669273 C81.42355047 128.58814138 81.40838576 126.75955442 81.39665604 124.93094826 C82.20168025 104.59834097 82.20168025 104.59834097 74 87 C68.28984664 83.73705522 60.49359319 84.12907592 54.2421875 85.6875 C47.69964133 88.03109863 44.35286149 90.88572267 40.89240456 96.93677139 C39.93938567 99.1401396 39.74088023 100.62477201 39.7215271 103.01165771 C39.71036362 103.7996727 39.69920013 104.58768768 39.68769836 105.39958191 C39.68553818 106.25481949 39.68337799 107.11005707 39.68115234 107.99121094 C39.66608391 109.35271019 39.66608391 109.35271019 39.65071106 110.74171448 C39.61984179 113.7392616 39.60283343 116.73671924 39.5859375 119.734375 C39.56722888 121.8137489 39.54765569 123.89311519 39.5272522 125.97247314 C39.47589279 131.44357822 39.43628737 136.91470792 39.39910889 142.38592529 C39.35909318 147.96958527 39.30798972 153.55314248 39.2578125 159.13671875 C39.16100801 170.09108087 39.07764235 181.04548528 39 192 C26.13 192 13.26 192 0 192 C0 128.64 0 65.28 0 0 Z " fill="#417C9C" transform="translate(892,845)"/>
<path d="M0 0 C8.2371167 8.20482094 15.70078039 16.95863216 23 26 C28.23668459 32.44731597 33.53543592 38.83427639 38.91357422 45.16357422 C42.55954932 49.46111625 46.1297728 53.81657801 49.6875 58.1875 C52.71836796 61.87369077 55.80669494 65.50935424 58.89868164 69.14428711 C62.67742691 73.59507547 66.36741868 78.11090359 70.02734375 82.66015625 C71.88700223 85.02277237 71.88700223 85.02277237 74.08917236 86.65811157 C76.7327827 89.89809006 76.57315482 92.80604798 76.54589844 96.81005859 C76.55623328 97.60077035 76.56656813 98.39148211 76.57721615 99.20615482 C76.60690599 101.85378503 76.60814656 104.50065243 76.609375 107.1484375 C76.62447664 109.03948836 76.64126502 110.9305264 76.65962219 112.82154846 C76.70413813 117.94115028 76.72368795 123.06057686 76.73842239 128.18033981 C76.7577387 133.51037472 76.79936294 138.8402401 76.83764648 144.17016602 C76.9269091 157.44669616 76.96909464 170.72322134 77 184 C77.00262093 185.07915932 77.00524185 186.15831863 77.0079422 187.27017975 C77.07381504 214.8468854 77.07067535 242.42331347 77 270 C69.65747909 262.68626735 62.90228006 254.97076056 56.3828125 246.91796875 C53.79244248 243.74582711 51.15321062 240.61953249 48.5 237.5 C45.14539595 233.55361117 41.82777828 229.58357507 38.5625 225.5625 C35.10725849 221.31607618 31.57302166 217.14703706 28 213 C23.68958426 207.99710454 19.46116093 202.9401559 15.30859375 197.8046875 C13.57574279 195.69946417 11.82275143 193.6281322 10.03515625 191.5703125 C9.53121338 190.98709229 9.02727051 190.40387207 8.50805664 189.80297852 C7.52479559 188.66817715 6.53594068 187.53819138 5.54077148 186.41381836 C1.56868515 181.81686114 0.88399712 178.77079508 0.84178162 172.81729126 C0.8319928 171.76760162 0.82220398 170.71791199 0.81211853 169.63641357 C0.80636307 168.48876526 0.8006076 167.34111694 0.79467773 166.15869141 C0.78477814 164.94452545 0.77487854 163.7303595 0.76467896 162.47940063 C0.73844958 159.13781757 0.71656874 155.79625938 0.69667697 152.4546361 C0.67462598 148.91003062 0.64728462 145.36546556 0.62062073 141.82089233 C0.57626649 135.82348522 0.53557034 129.82606226 0.49731445 123.82861328 C0.44918001 116.28511124 0.39525734 108.7416634 0.33934593 101.19821548 C0.08942732 67.46531736 -0.07473962 33.734015 0 0 Z " fill="#71B3CB" transform="translate(228,866)"/>
<path d="M0 0 C0.33 0 0.66 0 1 0 C2.00967493 30.95431733 2.66108918 61.90707277 3.04321671 92.8753767 C3.14987656 101.42582669 3.27830252 109.9749059 3.45751953 118.52416992 C3.61598733 126.08519556 3.73484869 133.64564078 3.80661082 141.20800477 C3.84557093 145.17967725 3.90298659 149.14892528 4.00839996 153.11943626 C4.73860602 181.48119954 4.73860602 181.48119954 -2.21191406 189.63012695 C-4.06250674 191.54004678 -5.99366645 193.2418667 -8 195 C-9.90167305 197.1119376 -11.69897875 199.30224817 -13.5 201.5 C-14.41857418 202.57982846 -15.33891416 203.65815955 -16.26171875 204.734375 C-19.03094219 208.00754013 -21.68040916 211.36615717 -24.3125 214.75 C-28.99059875 220.76229184 -33.79986032 226.65588294 -38.65405273 232.52661133 C-46.34633766 241.83001137 -53.96918305 251.19032484 -61.5 260.625 C-67.36707746 267.96814981 -67.36707746 267.96814981 -70 271 C-70.33 271 -70.66 271 -71 271 C-71.3492883 252.69715532 -71.66910019 234.39385463 -71.96603012 216.09009171 C-71.99952403 214.0292856 -72.03333319 211.96848484 -72.06716919 209.90768433 C-72.33296265 193.64021328 -72.5461264 177.37346375 -72.65195465 161.10410309 C-72.69836931 154.15376342 -72.76730693 147.20490487 -72.88476562 140.25537109 C-72.99018942 134.01489006 -73.05631872 127.77542402 -73.07564378 121.53406072 C-73.08695048 118.28194854 -73.12205327 115.03318149 -73.19359589 111.78176117 C-73.67785951 88.82417455 -73.67785951 88.82417455 -66.67285156 81.13769531 C-64.8419428 79.33889505 -62.94301551 77.68299654 -61 76 C-59.67236901 74.42546851 -58.37265842 72.82612807 -57.125 71.1875 C-53.68275712 66.84422013 -50.19010532 62.54456496 -46.6875 58.25 C-42.59413721 53.22656784 -38.54617852 48.17330045 -34.5625 43.0625 C-29.88631985 37.06611817 -25.06364381 31.19923371 -20.21362305 25.34301758 C-15.48307006 19.61841493 -10.86823282 13.81134384 -6.3046875 7.953125 C-5.16386719 6.49132812 -5.16386719 6.49132812 -4 5 C-3.26007813 4.04609375 -2.52015625 3.0921875 -1.7578125 2.109375 C-1.17773438 1.41328125 -0.59765625 0.7171875 0 0 Z " fill="#FEFEFE" transform="translate(526,863)"/>
<path d="M0 0 C0.33 0 0.66 0 1 0 C1.28817426 13.67669501 1.51500991 27.35377262 1.70374107 41.03216743 C1.85858267 52.15914746 2.06393691 63.28424852 2.30664062 74.40966797 C2.56969917 86.4754102 2.79304651 98.54118446 2.98006535 110.60832024 C3.08747193 117.45458062 3.21354871 124.29952621 3.38400269 131.14453125 C3.54766622 137.71720724 3.65831119 144.28937688 3.73596954 150.86372566 C3.77353454 153.31940239 3.82864502 155.77488261 3.90254974 158.22973442 C4.54207121 180.07398922 4.54207121 180.07398922 -1.7800293 187.75610352 C-3.47984127 189.54316497 -5.21793196 191.2949537 -7 193 C-8.4591701 194.75302013 -9.90023411 196.52147739 -11.3125 198.3125 C-12.04597656 199.20195313 -12.77945313 200.09140625 -13.53515625 201.0078125 C-16.45667076 204.55437369 -19.35440684 208.11976916 -22.25 211.6875 C-25.60812323 215.82477472 -28.96700305 219.96136411 -32.3359375 224.08984375 C-37.95098107 230.97612388 -43.50595643 237.89940692 -48.96606445 244.90917969 C-52.59480892 249.54218433 -56.37540049 254.03200208 -60.20507812 258.49951172 C-62.79166108 261.5288346 -65.26314748 264.60511555 -67.625 267.8125 C-68.800625 269.3903125 -68.800625 269.3903125 -70 271 C-70.33 271 -70.66 271 -71 271 C-71.07459434 265.8541896 -71.14727207 260.70835448 -71.21875 255.5625 C-71.23573503 254.34078032 -71.23573503 254.34078032 -71.2530632 253.09437943 C-71.39370898 242.88779773 -71.51793571 232.68122693 -71.61376953 222.47412109 C-71.62299753 221.49893461 -71.63222553 220.52374813 -71.64173317 219.51901054 C-71.67990021 215.46912394 -71.71791535 211.41923679 -71.75445938 207.36933517 C-71.8730032 194.38947658 -72.05546294 181.41325185 -72.32625961 168.43564987 C-72.5067367 159.68252606 -72.64045362 150.92941895 -72.74274063 142.17503738 C-72.80663039 136.89392246 -72.8940643 131.61552962 -73.0378418 126.3359375 C-73.17342157 121.33743944 -73.24579998 116.34175835 -73.27284622 111.34153366 C-73.29364118 109.51129084 -73.33669011 107.68112821 -73.40491867 105.85203934 C-73.83175103 93.98085248 -71.93483268 87.07230122 -63.89491844 78.10735512 C-62.77673661 76.91686448 -61.64825913 75.73593023 -60.50798607 74.56658173 C-58.59299828 72.57718346 -56.87297648 70.45937776 -55.16796875 68.2890625 C-54.66458984 67.6703125 -54.16121094 67.0515625 -53.64257812 66.4140625 C-49.11906589 60.85226759 -44.61272326 55.27828013 -40.14453125 49.671875 C-37.90136271 46.87710764 -35.6394877 44.09824944 -33.37524414 41.32055664 C-28.71843382 35.60749309 -24.09420721 29.87540084 -19.5625 24.0625 C-15.23750974 18.52502416 -10.82795417 13.06008204 -6.375 7.625 C-5.75826416 6.86840088 -5.14152832 6.11180176 -4.50610352 5.33227539 C-3.64843384 4.28994751 -3.64843384 4.28994751 -2.7734375 3.2265625 C-2.26216309 2.60346191 -1.75088867 1.98036133 -1.22412109 1.33837891 C-0.82016113 0.89671387 -0.41620117 0.45504883 0 0 Z " fill="#DCF1FC" transform="translate(376,865)"/>
<path d="M0 0 C12.01440215 11.63698638 17.11968868 26.07909226 20 42.1875 C20 50.7675 20 59.3475 20 68.1875 C-8.71 68.1875 -37.42 68.1875 -67 68.1875 C-64.85201915 79.91934382 -64.85201915 79.91934382 -60 89.1875 C-60 89.8475 -60 90.5075 -60 91.1875 C-59.42765625 91.47367188 -58.8553125 91.75984375 -58.265625 92.0546875 C-56.83011158 92.77244421 -55.40187629 93.50510833 -53.984375 94.2578125 C-44.51391768 98.72813326 -33.6654818 98.56563336 -23.6875 95.75 C-18.04532508 93.61782748 -13.8374122 90.20851509 -9.375 86.2109375 C-7.28616585 84.43130578 -5.50242262 83.26493196 -3 82.1875 C3.62811697 89.99179639 9.94115666 97.93342356 16 106.1875 C5.52764209 119.69132994 -10.08327011 126.20800129 -26.68359375 128.72265625 C-45.83564859 131.08594923 -66.21361449 129.68278997 -82.0625 117.625 C-85.21328869 114.96833869 -88.19944914 112.21512256 -91 109.1875 C-91.46921875 108.7234375 -91.9384375 108.259375 -92.421875 107.78125 C-106.96518043 92.48828965 -107.86772005 69.91108229 -107.375 50.11328125 C-106.57508981 31.58786131 -100.3643072 13.93472305 -86.9140625 0.74609375 C-63.49748703 -19.81403619 -24.15987669 -18.93165736 0 0 Z M-60.5 22.5 C-65.77126344 29.68532451 -66.1583947 34.9298417 -67 44.1875 C-51.49 44.1875 -35.98 44.1875 -20 44.1875 C-20 35.37191018 -21.33587904 28.1843553 -27 21.1875 C-31.52308921 16.78665644 -36.06587563 15.52605281 -42.25 14.8125 C-49.08141477 15.49564148 -55.77165518 17.26462569 -60.5 22.5 Z " fill="#417C9D" transform="translate(1395,910.8125)"/>
<path d="M0 0 C14.10412401 12.22498174 20.09967 26.65023086 23.109375 44.82421875 C23.109375 53.07421875 23.109375 61.32421875 23.109375 69.82421875 C-5.600625 69.82421875 -34.310625 69.82421875 -63.890625 69.82421875 C-61.74264415 81.55606257 -61.74264415 81.55606257 -56.890625 90.82421875 C-56.890625 91.48421875 -56.890625 92.14421875 -56.890625 92.82421875 C-56.31828125 93.11039063 -55.7459375 93.3965625 -55.15625 93.69140625 C-53.72073658 94.40916296 -52.29250129 95.14182708 -50.875 95.89453125 C-41.67043701 100.23934245 -30.74290839 100.42581113 -21.078125 97.32421875 C-13.90154116 94.29507065 -7.24506964 89.47808957 -1.890625 83.82421875 C2.51676913 85.37611809 4.77567058 88.85972982 7.484375 92.44921875 C7.96753174 93.07715332 8.45068848 93.70508789 8.94848633 94.35205078 C10.343853 96.16989371 11.72842655 97.99540915 13.109375 99.82421875 C14.12451172 101.16226563 14.12451172 101.16226563 15.16015625 102.52734375 C16.48561346 104.28618434 17.79932095 106.05387544 19.109375 107.82421875 C9.51110873 121.09241036 -6.06553126 126.95129163 -21.578125 130.13671875 C-42.93955771 133.13077401 -63.77354267 130.49384263 -81.65234375 117.875 C-96.18584985 105.71028267 -102.90722848 87.10168099 -104.62158203 68.65820312 C-106.12378792 46.92459392 -102.53848907 24.25769711 -88.15527344 7.14526367 C-66.78467374 -17.01492766 -25.3682185 -19.09472663 0 0 Z M-57.38671875 24.01171875 C-62.7282844 30.44934592 -63.890625 37.72215525 -63.890625 45.82421875 C-48.380625 45.82421875 -32.870625 45.82421875 -16.890625 45.82421875 C-16.890625 37.00862893 -18.22650404 29.82107405 -23.890625 22.82421875 C-28.44050877 18.39730481 -33.01933321 17.0900791 -39.265625 16.51171875 C-46.30943242 17.11894353 -52.15332137 19.15473742 -57.38671875 24.01171875 Z " fill="#417C9D" transform="translate(1141.890625,909.17578125)"/>
<path d="M0 0 C14.29693888 11.97503001 21.22908374 29.52762773 23.125 47.7734375 C24.89909347 69.15708951 21.9592597 91.34014905 8.56640625 108.828125 C-1.74376746 120.899015 -15.44153538 128.78788487 -31.40234375 130.17578125 C-50.69768067 131.28450311 -68.78983919 128.83729343 -83.90234375 115.73828125 C-97.36321373 102.67331921 -104.68153551 84.91679554 -105.40234375 66.17578125 C-105.45390625 65.02078125 -105.50546875 63.86578125 -105.55859375 62.67578125 C-106.2038568 41.20806707 -101.2005437 19.4954378 -86.21484375 3.42578125 C-63.58404402 -17.97966215 -24.38221725 -18.75818964 0 0 Z M-59.40234375 26.17578125 C-63.86909401 33.23381932 -64.56641942 39.8438902 -64.640625 48.02734375 C-64.64869675 48.8820224 -64.65676849 49.73670105 -64.66508484 50.61727905 C-64.67888412 52.42435708 -64.68962476 54.23146071 -64.69750977 56.03857422 C-64.70899884 57.8693822 -64.72940171 59.70015749 -64.7590332 61.53076172 C-65.4409492 78.00958179 -65.4409492 78.00958179 -58.45898438 92.38500977 C-53.14084873 97.48738182 -48.33874737 99.22680052 -41.02734375 99.48828125 C-33.73062112 99.30042525 -28.78246246 97.96596482 -23.58984375 92.67578125 C-16.47888439 83.46547815 -16.92497335 72.24714059 -17.01123047 61.14208984 C-17.02731553 58.68010052 -17.01131031 56.21975219 -16.9921875 53.7578125 C-16.90253823 37.37901198 -16.90253823 37.37901198 -24.79296875 23.54296875 C-35.04961936 14.82979469 -50.41483016 16.77024377 -59.40234375 26.17578125 Z " fill="#417C9D" transform="translate(1637.40234375,909.82421875)"/>
<path d="M0 0 C11.55 0 23.1 0 35 0 C35 12.21 35 24.42 35 37 C43.91 37 52.82 37 62 37 C62 47.23 62 57.46 62 68 C53.09 68 44.18 68 35 68 C35 92.75 35 117.5 35 143 C43.25 143 51.5 143 60 143 C60 153.23 60 163.46 60 174 C54.946875 174.061875 49.89375 174.12375 44.6875 174.1875 C42.33177856 174.22846802 42.33177856 174.22846802 39.9284668 174.27026367 C28.28764873 174.33883883 15.92058861 173.19678393 6.87109375 165.09375 C-1.27029778 156.5775246 -4.17460557 147.15669166 -4.11352539 135.54760742 C-4.11367142 134.8153595 -4.11381744 134.08311157 -4.1139679 133.32867432 C-4.11327413 130.92090845 -4.10550692 128.51322102 -4.09765625 126.10546875 C-4.09579017 124.43109682 -4.09436716 122.75672435 -4.09336853 121.08235168 C-4.08955835 116.68472779 -4.0797409 112.28713716 -4.06866455 107.88952637 C-4.05841816 103.39836069 -4.053864 98.90718963 -4.04882812 94.41601562 C-4.03811725 85.61066016 -4.02053263 76.80533805 -4 68 C-10.27 68 -16.54 68 -23 68 C-23 57.77 -23 47.54 -23 37 C-18.05 36.67 -13.1 36.34 -8 36 C-2.95091343 33.6196714 -2.95091343 33.6196714 -1.7265625 30.15234375 C-0.43603143 24.40842268 -0.52896808 18.42094897 -0.375 12.5625 C-0.189375 6.3440625 -0.189375 6.3440625 0 0 Z " fill="#417C9C" transform="translate(1453,863)"/>
<path d="M0 0 C12.87 0 25.74 0 39 0 C39.495 12.375 39.495 12.375 40 25 C41.98 20.545 41.98 20.545 44 16 C50.01712514 7.42526015 57.15342855 2.39467196 67.375 0.3125 C71.90984215 -0.07843467 76.45243734 -0.2962014 81 0 C82.76072584 1.76072584 82.12834784 4.0789629 82.13894653 6.4239502 C82.13591019 7.5598761 82.13591019 7.5598761 82.1328125 8.71875 C82.13376923 9.49182495 82.13472595 10.2648999 82.13571167 11.06140137 C82.13639341 12.69897544 82.13453957 14.33655219 82.13037109 15.97412109 C82.12502271 18.48931921 82.13031626 21.00433873 82.13671875 23.51953125 C82.13605797 25.10677123 82.1347768 26.6940111 82.1328125 28.28125 C82.13483673 29.03853394 82.13686096 29.79581787 82.13894653 30.5760498 C82.11495132 35.88504868 82.11495132 35.88504868 81 37 C79.49541958 37.12116167 77.98568867 37.17962306 76.4765625 37.2109375 C60.10239163 37.26767613 60.10239163 37.26767613 45 42.8125 C40.24340212 48.01502894 39.55528824 52.84706059 39.56762695 59.57568359 C39.5574353 60.41536682 39.54724365 61.25505005 39.53674316 62.12017822 C39.50668808 64.87966652 39.49735872 67.63880724 39.48828125 70.3984375 C39.47142901 72.318015 39.45327803 74.23758151 39.43388367 76.15713501 C39.3864368 81.19749515 39.35659303 86.23781068 39.33044434 91.27832031 C39.29536249 97.33244472 39.23836482 103.38639788 39.18505096 109.44038391 C39.10659935 118.62690076 39.05594653 127.81319437 39 137 C26.13 137 13.26 137 0 137 C0 91.79 0 46.58 0 0 Z " fill="#417C9C" transform="translate(1192,900)"/>
<path d="M0 0 C3.23939656 1.73539102 5.42321134 3.42321134 8 6 C9.3921875 4.7934375 9.3921875 4.7934375 10.8125 3.5625 C14.88856721 0.02990842 18.5497022 -0.2912118 23.78515625 -0.21484375 C28.1708604 0.21057729 30.35416085 2.30034092 33.25 5.4375 C36.35066859 9.97776472 36.11923523 13.95272181 36.09765625 19.390625 C36.0962413 20.09523865 36.09482635 20.79985229 36.09336853 21.52581787 C36.08778933 23.76725584 36.07524073 26.00859243 36.0625 28.25 C36.05748231 29.77343605 36.05291987 31.29687368 36.04882812 32.8203125 C36.03782674 36.54690772 36.02057646 40.27344396 36 44 C33.36 44 30.72 44 28 44 C27.98541748 43.05157227 27.97083496 42.10314453 27.95581055 41.12597656 C27.89467436 37.5995206 27.8205087 34.07383557 27.73754883 30.54785156 C27.7043412 29.0232166 27.67629622 27.49845994 27.65356445 25.97363281 C27.61994042 23.77877046 27.56762458 21.58501912 27.51171875 19.390625 C27.48553467 18.07094727 27.45935059 16.75126953 27.43237305 15.39160156 C26.98523916 11.88421365 26.47790484 10.45947756 24 8 C20.39263833 6.49693264 18.98018434 7.00726574 15.25 8.375 C12.21740659 9.67718416 12.21740659 9.67718416 11 11 C10.84019563 13.44608998 10.74070553 15.86731058 10.68359375 18.31640625 C10.66281265 19.04746078 10.64203156 19.77851532 10.62062073 20.53172302 C10.55504976 22.87521656 10.49620568 25.21882539 10.4375 27.5625 C10.39432192 29.14779855 10.35070787 30.73308529 10.30664062 32.31835938 C10.1993608 36.21212037 10.0981151 40.10599772 10 44 C7.36 44 4.72 44 2 44 C1.98541748 43.05157227 1.97083496 42.10314453 1.95581055 41.12597656 C1.89467436 37.5995206 1.8205087 34.07383557 1.73754883 30.54785156 C1.7043412 29.0232166 1.67629622 27.49845994 1.65356445 25.97363281 C1.61994042 23.77877046 1.56762458 21.58501912 1.51171875 19.390625 C1.48553467 18.07094727 1.45935059 16.75126953 1.43237305 15.39160156 C0.98523916 11.88421365 0.47790484 10.45947756 -2 8 C-5.60736167 6.49693264 -7.01981566 7.00726574 -10.75 8.375 C-13.78259341 9.67718416 -13.78259341 9.67718416 -15 11 C-15.15980437 13.44608998 -15.25929447 15.86731058 -15.31640625 18.31640625 C-15.33718735 19.04746078 -15.35796844 19.77851532 -15.37937927 20.53172302 C-15.44495024 22.87521656 -15.50379432 25.21882539 -15.5625 27.5625 C-15.60567808 29.14779855 -15.64929213 30.73308529 -15.69335938 32.31835938 C-15.8006392 36.21212037 -15.9018849 40.10599772 -16 44 C-18.64 44 -21.28 44 -24 44 C-24 29.81 -24 15.62 -24 1 C-21.36 1 -18.72 1 -16 1 C-15.67 1.99 -15.34 2.98 -15 4 C-14.071875 3.01 -14.071875 3.01 -13.125 2 C-8.75499318 -0.79680436 -5.06335692 -0.82633985 0 0 Z " fill="#9ABDC8" transform="translate(800,1119)"/>
<path d="M0 0 C2.64 0 5.28 0 8 0 C8 20.46 8 40.92 8 62 C5.36 62 2.72 62 0 62 C-0.33 61.01 -0.66 60.02 -1 59 C-1.763125 59.66 -2.52625 60.32 -3.3125 61 C-7.85125839 64.02943256 -12.75671059 63.6182386 -18 63 C-23.30047766 61.4294881 -25.30301096 58.59785537 -28.01953125 54.03515625 C-31.36219724 47.09679377 -31.11180101 37.56791387 -29.31640625 30.19140625 C-27.23770133 25.07658461 -24.54195554 22.09239526 -20 19 C-17.16511195 18.05503732 -15.14441383 17.7738001 -12.1875 17.6875 C-11.35605469 17.65011719 -10.52460937 17.61273437 -9.66796875 17.57421875 C-7 18 -7 18 -1 22 C-0.67 14.74 -0.34 7.48 0 0 Z M-18 27 C-20.98356483 29.86058635 -22.24473509 31.96487772 -22.49609375 36.03125 C-22.49741208 37.52096079 -22.47736573 39.01082214 -22.4375 40.5 C-22.44458984 41.24636719 -22.45167969 41.99273438 -22.45898438 42.76171875 C-22.4067109 47.30548984 -21.91832892 50.31947223 -19 54 C-15.41733228 56.38844515 -12.24532331 57.07222667 -8 57 C-3.94236447 55.49717203 -2.41227506 54.61841259 0 51 C0.45642994 47.53611866 0.37030492 44.05329246 0.375 40.5625 C0.39949219 39.60794922 0.42398437 38.65339844 0.44921875 37.66992188 C0.54773155 32.19906446 0.54773155 32.19906446 -1.81640625 27.4296875 C-7.75728711 23.53995156 -11.88937097 23.42585849 -18 27 Z " fill="#9BBEC8" transform="translate(1208,1101)"/>
<path d="M0 0 C5.33188322 3.68153842 8.21751734 8.51426824 9.625 14.8125 C10.49940297 23.05085091 10.01818595 30.61999739 5.625 37.8125 C2.74900698 40.98929841 -0.40778217 43.6164211 -4.765625 44.05078125 C-5.70921875 44.07527344 -6.6528125 44.09976562 -7.625 44.125 C-8.55828125 44.16238281 -9.4915625 44.19976563 -10.453125 44.23828125 C-13.375 43.8125 -13.375 43.8125 -19.375 39.8125 C-19.705 46.4125 -20.035 53.0125 -20.375 59.8125 C-23.015 59.8125 -25.655 59.8125 -28.375 59.8125 C-28.375 40.0125 -28.375 20.2125 -28.375 -0.1875 C-25.735 -0.1875 -23.095 -0.1875 -20.375 -0.1875 C-20.045 0.8025 -19.715 1.7925 -19.375 2.8125 C-18.941875 2.338125 -18.50875 1.86375 -18.0625 1.375 C-13.44891963 -2.89683368 -5.50020141 -1.93525605 0 0 Z M-19.05664062 8.08251953 C-21.73905467 11.60244285 -20.88594058 16.43708529 -20.875 20.6875 C-20.90335938 21.68136719 -20.93171875 22.67523437 -20.9609375 23.69921875 C-20.97879363 29.76152043 -20.97879363 29.76152043 -18.02734375 34.94921875 C-14.93820077 37.11935307 -13.14372528 37.73558724 -9.375 37.8125 C-4.90340944 36.82875008 -2.23277001 35.41117334 0.625 31.8125 C2.78797072 25.45250662 2.53345278 17.44701306 0.375 11.1875 C-2.00031209 7.96386217 -3.90697285 6.32829332 -7.6875 5 C-11.84752725 4.70976554 -15.68844194 5.53876669 -19.05664062 8.08251953 Z " fill="#9BBEC8" transform="translate(883.375,1120.1875)"/>
<path d="M0 0 C3.6965807 1.76127103 6.85957552 3.97405458 9.38671875 7.23828125 C9.38671875 8.22828125 9.38671875 9.21828125 9.38671875 10.23828125 C7.40671875 11.22828125 5.42671875 12.21828125 3.38671875 13.23828125 C2.89171875 11.75328125 2.89171875 11.75328125 2.38671875 10.23828125 C-1.69556993 7.78890804 -5.33824515 7.10049282 -10.05078125 7.11328125 C-10.99824219 7.11070313 -11.94570312 7.108125 -12.921875 7.10546875 C-15.31468584 7.2235465 -17.32664278 7.5571549 -19.61328125 8.23828125 C-19.91884351 9.62692559 -20.18128933 11.02509389 -20.42578125 12.42578125 C-20.57660156 13.20308594 -20.72742187 13.98039062 -20.8828125 14.78125 C-20.80134214 17.46575862 -20.80134214 17.46575862 -18.5859375 19.91015625 C-15.12708077 22.61906375 -12.51237602 23.36880318 -8.23828125 24.30078125 C4.78893347 27.42813121 4.78893347 27.42813121 8.82421875 33.42578125 C11.25774771 38.35604771 11.32925065 43.24124161 9.69140625 48.44921875 C7.57031808 53.24394746 5.09859799 55.7319625 0.38671875 58.23828125 C-7.02618478 60.70924909 -16.32883019 60.375624 -23.36328125 56.98828125 C-26.62938855 55.18858948 -28.52777352 53.3269446 -30.61328125 50.23828125 C-29.22168462 46.75928967 -27.98076637 45.75775624 -24.61328125 44.23828125 C-24.14277344 44.65980469 -23.67226562 45.08132813 -23.1875 45.515625 C-22.56488281 46.06347656 -21.94226562 46.61132812 -21.30078125 47.17578125 C-20.68589844 47.72105469 -20.07101562 48.26632812 -19.4375 48.828125 C-16.31688744 51.24041865 -13.4870802 51.39712487 -9.67578125 51.42578125 C-8.39380859 51.44705078 -8.39380859 51.44705078 -7.0859375 51.46875 C-4.43976566 51.22210839 -2.85704059 50.63627764 -0.61328125 49.23828125 C1.6822386 46.02455346 1.87048808 43.1084359 1.38671875 39.23828125 C-1.93228143 34.71559034 -6.40948402 33.70784653 -11.55078125 32.17578125 C-21.85380147 29.04080254 -21.85380147 29.04080254 -25.61328125 26.23828125 C-25.61328125 25.57828125 -25.61328125 24.91828125 -25.61328125 24.23828125 C-26.27328125 24.23828125 -26.93328125 24.23828125 -27.61328125 24.23828125 C-30.04258632 18.80806992 -30.03878797 13.9310516 -28.61328125 8.23828125 C-23.21381879 -2.10708883 -10.14040356 -2.95572301 0 0 Z " fill="#9BBEC8" transform="translate(1336.61328125,1104.76171875)"/>
<path d="M0 0 C3.91715725 2.3311143 6.73780833 5.27502647 9.32421875 9.046875 C7.34421875 10.366875 5.36421875 11.686875 3.32421875 13.046875 C1.859375 11.77734375 0.39453125 10.5078125 -1.0703125 9.23828125 C-5.29311654 6.10457023 -10.67627532 6.60832185 -15.67578125 7.046875 C-18.75077594 8.02024694 -18.75077594 8.02024694 -20.67578125 10.046875 C-21.81757688 12.93942392 -21.75539945 14.62887948 -21.17578125 17.671875 C-18.03466281 22.64531253 -11.45632729 23.41073815 -6.11328125 24.984375 C-0.10875876 26.80434508 3.92985485 28.4130747 8.19921875 33.109375 C10.2329907 38.41977954 10.4133591 44.01140051 8.48046875 49.3984375 C6.13637585 53.62730779 3.29535044 56.52503125 -1.17578125 58.421875 C-9.12713125 60.4097125 -17.51933384 60.07595397 -24.83203125 56.26953125 C-27.53836791 54.47486309 -29.55811624 52.50609888 -31.67578125 50.046875 C-30.28418462 46.56788342 -29.04326637 45.56634999 -25.67578125 44.046875 C-25.20527344 44.46839844 -24.73476562 44.88992188 -24.25 45.32421875 C-23.62738281 45.87207031 -23.00476562 46.41992188 -22.36328125 46.984375 C-21.74839844 47.52964844 -21.13351562 48.07492187 -20.5 48.63671875 C-16.20635853 51.95578635 -10.8443947 51.52499235 -5.67578125 51.046875 C-1.89212593 49.35284411 -1.89212593 49.35284411 0.32421875 46.046875 C0.93300785 41.95373627 0.93300785 41.95373627 0.32421875 38.046875 C-4.78485155 33.73128947 -10.68336348 32.30494907 -17.04296875 30.59960938 C-22.8696729 28.84865535 -26.56716135 26.38419553 -29.67578125 21.046875 C-30.94833408 15.62142125 -30.37361299 10.61001809 -28.11328125 5.546875 C-20.74103441 -2.01440381 -10.01542965 -3.5675399 0 0 Z " fill="#9BBEC8" transform="translate(1064.67578125,1104.953125)"/>
<path d="M0 0 C5.17231465 3.08349527 7.90274289 7.03792839 9.5625 12.8125 C11.26871083 21.34355413 10.75645311 30.26873414 6.078125 37.83203125 C3.79969927 40.72225648 1.64674224 42.59219528 -1.75 43.9375 C-6.68553698 44.5038731 -11.24722814 44.6122139 -15.8125 42.5625 C-17.75 40.9375 -17.75 40.9375 -19.75 38.9375 C-20.08 45.8675 -20.41 52.7975 -20.75 59.9375 C-23.06 59.9375 -25.37 59.9375 -27.75 59.9375 C-27.75 40.1375 -27.75 20.3375 -27.75 -0.0625 C-25.44 -0.0625 -23.13 -0.0625 -20.75 -0.0625 C-20.42 1.2575 -20.09 2.5775 -19.75 3.9375 C-19.151875 3.298125 -18.55375 2.65875 -17.9375 2 C-13.0137767 -2.64236768 -6.09255508 -1.72622394 0 0 Z M-19.75 9.9375 C-21.01864164 13.74342493 -20.97320072 17.34620641 -21 21.3125 C-21.020625 22.06789063 -21.04125 22.82328125 -21.0625 23.6015625 C-21.09481019 28.22191995 -20.72585225 31.17889988 -17.75 34.9375 C-14.95870365 36.99774254 -13.00859426 37.98775637 -9.5 37.84765625 C-5.47215474 37.15205797 -3.25568837 36.41790395 -0.25 33.5625 C3.23449984 27.46462529 2.96058251 20.36121575 1.5625 13.625 C-0.1629457 10.09194452 -1.51237947 8.23081454 -4.75 5.9375 C-10.75425237 4.80182727 -15.52555299 5.16796306 -19.75 9.9375 Z " fill="#9BBEC8" transform="translate(1391.75,1120.0625)"/>
<path d="M0 0 C3.97440427 2.39318967 6.12301019 5.45947064 8.4375 9.4375 C8.4375 10.4275 8.4375 11.4175 8.4375 12.4375 C4.21527778 15.4375 4.21527778 15.4375 1.4375 15.4375 C0.839375 14.509375 0.24125 13.58125 -0.375 12.625 C-2.67851021 9.26845655 -3.81833759 7.93516497 -7.5625 6.4375 C-12.26915253 5.73150212 -15.6213127 5.98433574 -19.9375 8.0625 C-24.81220195 12.47294463 -26.39549557 17.55667363 -26.765625 23.94140625 C-27.07952788 36.03172875 -27.07952788 36.03172875 -23.5625 47.4375 C-18.3036691 50.79374574 -12.62853587 51.11780309 -6.5625 50.4375 C-2.0600525 48.22720759 0.20307777 45.90634445 2.4375 41.4375 C4.875 42.1875 4.875 42.1875 7.4375 43.4375 C8.2890625 45.26171875 8.2890625 45.26171875 8.4375 47.4375 C7.21484375 49.47265625 7.21484375 49.47265625 5.375 51.5 C4.78589844 52.17160156 4.19679688 52.84320312 3.58984375 53.53515625 C-2.28253642 58.72544507 -7.68169854 58.91678134 -15.21875 58.7109375 C-21.44095787 58.20211209 -24.91471457 56.38204718 -29.3125 51.875 C-36.59440431 42.80943823 -36.54694755 31.56954391 -35.5625 20.4375 C-34.29588042 13.14066982 -31.64121067 7.27938677 -26.125 2.1875 C-18.75198849 -2.84772737 -8.2263713 -3.65790937 0 0 Z " fill="#9BBEC8" transform="translate(700.5625,1105.5625)"/>
<path d="M0 0 C5.54138957 3.25964092 7.76707881 6.82394703 10.1875 12.875 C10.1875 16.505 10.1875 20.135 10.1875 23.875 C0.2875 23.875 -9.6125 23.875 -19.8125 23.875 C-18.45253661 29.41577876 -18.45253661 29.41577876 -16.8125 34.875 C-12.14851886 37.15011275 -7.72012158 37.48389037 -2.8125 35.875 C0.06390616 33.49999209 0.06390616 33.49999209 2.1875 30.875 C2.8475 30.545 3.5075 30.215 4.1875 29.875 C5.8375 31.525 7.4875 33.175 9.1875 34.875 C5.92028452 39.19925578 3.49649738 42.16853656 -1.8125 43.875 C-8.49793486 44.48896851 -15.19594233 45.05141468 -20.8125 40.875 C-26.5349749 34.98902582 -28.0220046 29.57533133 -28.3125 21.5625 C-28.16247128 14.674818 -27.03851806 9.3996382 -22.8125 3.875 C-16.40149526 -2.11928943 -8.05962433 -2.3782498 0 0 Z M-17.8125 8.875 C-20.22901838 12.13204651 -19.8125 13.50450395 -19.8125 17.875 C-12.5525 17.875 -5.2925 17.875 2.1875 17.875 C2.2822517 11.64975933 2.2822517 11.64975933 -1.1953125 7.08203125 C-6.98351916 2.76184801 -12.55746451 4.98627374 -17.8125 8.875 Z " fill="#9BBEC8" transform="translate(1542.8125,1120.125)"/>
<path d="M0 0 C3.72795022 1.87600076 4.83464207 4.61032749 6.4375 8.375 C6.77807617 11.62646484 6.77807617 11.62646484 6.73046875 15.0859375 C6.7159668 16.95185547 6.7159668 16.95185547 6.70117188 18.85546875 C6.67603516 20.14066406 6.65089844 21.42585938 6.625 22.75 C6.60469727 24.71259766 6.60469727 24.71259766 6.58398438 26.71484375 C6.5487237 29.93531844 6.49943633 33.15494606 6.4375 36.375 C8.0875 36.375 9.7375 36.375 11.4375 36.375 C11.4375 38.355 11.4375 40.335 11.4375 42.375 C4.05288462 42.86730769 4.05288462 42.86730769 0.9375 40.375 C0.4425 39.715 -0.0525 39.055 -0.5625 38.375 C-1.738125 39.3340625 -1.738125 39.3340625 -2.9375 40.3125 C-8.09198007 44.36244863 -13.17974275 43.98327843 -19.5625 43.375 C-22.78091904 42.1940972 -24.86542824 40.510162 -26.6875 37.54296875 C-28.28800985 33.57741978 -28.09358426 29.56920392 -27.5625 25.375 C-25.42631522 21.19163814 -22.5790486 19.37180732 -18.1328125 17.8671875 C-12.67648981 16.82235975 -7.09020889 17.16538183 -1.5625 17.375 C-1.68625 16.116875 -1.81 14.85875 -1.9375 13.5625 C-2.00710938 12.85480469 -2.07671875 12.14710937 -2.1484375 11.41796875 C-2.48915391 9.07511858 -2.48915391 9.07511858 -4.5625 6.375 C-9.11605698 5.31250337 -11.43459526 4.94119048 -15.8125 6.625 C-18.15847811 8.11789516 -20.39986646 9.62825753 -22.5625 11.375 C-24.125 10.1875 -24.125 10.1875 -25.5625 8.375 C-25.75 6 -25.75 6 -24.5625 3.375 C-17.99092474 -3.17871772 -8.25885472 -3.6046935 0 0 Z M-19.5625 26.375 C-20.16274521 28.41785061 -20.16274521 28.41785061 -19.875 30.5625 C-19.771875 31.820625 -19.66875 33.07875 -19.5625 34.375 C-16.09662226 36.54117359 -13.49457844 37.66198616 -9.4375 37.3125 C-5.65998762 36.60260182 -5.65998762 36.60260182 -3.0625 34.875 C-0.82215763 31.14109605 -1.2356949 27.62346628 -1.5625 23.375 C-3.62433633 23.29349256 -5.68711349 23.2355806 -7.75 23.1875 C-8.89855469 23.15269531 -10.04710937 23.11789062 -11.23046875 23.08203125 C-14.8978951 23.4044896 -16.74427464 24.01946835 -19.5625 26.375 Z " fill="#9ABEC8" transform="translate(749.5625,1120.625)"/>
<path d="M0 0 C2.89463671 1.6929777 4.9686051 3.1872102 6.5 6.25 C7.30807939 10.24215867 7.61952582 14.01819828 7.59765625 18.0859375 C7.59443359 19.14941406 7.59121094 20.21289062 7.58789062 21.30859375 C7.57532227 22.95021484 7.57532227 22.95021484 7.5625 24.625 C7.55798828 25.74261719 7.55347656 26.86023437 7.54882812 28.01171875 C7.53709244 30.75786804 7.52067363 33.50390586 7.5 36.25 C8.82 36.25 10.14 36.25 11.5 36.25 C11.5 38.23 11.5 40.21 11.5 42.25 C4.11538462 42.74230769 4.11538462 42.74230769 1 40.25 C0.505 39.59 0.01 38.93 -0.5 38.25 C-1.098125 38.889375 -1.69625 39.52875 -2.3125 40.1875 C-6.3190361 43.96509118 -10.6082991 43.52392296 -15.8359375 43.46875 C-20.12171233 43.11683887 -22.20454163 41.45292563 -25.25 38.625 C-27.18041414 34.95721313 -27.61453724 31.37334078 -27.5 27.25 C-26.2583982 23.52519461 -25.23756223 21.81287644 -22.125 19.4375 C-17.17681253 17.19903424 -12.57583336 17.13714174 -7.1875 17.1875 C-5.93324219 17.19652344 -4.67898438 17.20554687 -3.38671875 17.21484375 C-2.43410156 17.22644531 -1.48148438 17.23804688 -0.5 17.25 C-1.27773649 11.10292919 -1.27773649 11.10292919 -4.625 6.125 C-8.47316233 4.95382016 -11.7158527 5.00337058 -15.5 6.25 C-17.80556834 7.73667726 -19.51906854 9.31859182 -21.5 11.25 C-22.82 9.93 -24.14 8.61 -25.5 7.25 C-24.00521886 3.44510255 -21.80557786 1.58809165 -18.5 -0.75 C-12.47054509 -2.7598183 -5.79019592 -2.73933202 0 0 Z M-18.5 26.25 C-19.66025399 29.70421315 -19.66025399 29.70421315 -19.5 33.25 C-17.97107883 35.31283015 -16.90163703 36.12224117 -14.44921875 36.90234375 C-10.0682522 37.45469359 -8.04495868 37.53221075 -4 35.4375 C-1.46713257 33.4997925 -1.46713257 33.4997925 -0.5 31.25 C-0.4310528 29.87657169 -0.41532292 28.49997898 -0.4375 27.125 C-0.458125 25.84625 -0.47875 24.5675 -0.5 23.25 C-2.56183633 23.16849256 -4.62461349 23.1105806 -6.6875 23.0625 C-7.83605469 23.02769531 -8.98460937 22.99289062 -10.16796875 22.95703125 C-13.82985798 23.27900275 -15.64254644 23.96717147 -18.5 26.25 Z " fill="#9BBEC8" transform="translate(1442.5,1120.75)"/>
<path d="M0 0 C2.31 0 4.62 0 7 0 C11.82302753 10.7351258 15.34538273 21.82117069 19 33 C22.96 22.11 26.92 11.22 31 0 C33.64 0 36.28 0 39 0 C37.00429258 6.9009541 34.76437666 13.67434745 32.3125 20.42578125 C31.79683472 21.85170845 31.79683472 21.85170845 31.27075195 23.30644226 C30.54946878 25.2976771 29.82671343 27.28837926 29.10253906 29.27856445 C27.99738785 32.31968805 26.90086559 35.36383543 25.8046875 38.40820312 C25.09948139 40.35175237 24.3937699 42.29511833 23.6875 44.23828125 C23.19987183 45.59618523 23.19987183 45.59618523 22.70239258 46.98152161 C18.59628144 58.20185928 18.59628144 58.20185928 15 60 C13.45976004 60.06950541 11.91665012 60.08452357 10.375 60.0625 C9.14910156 60.04896484 9.14910156 60.04896484 7.8984375 60.03515625 C7.27195312 60.02355469 6.64546875 60.01195312 6 60 C4.875 55.25 4.875 55.25 6 53 C8.31 53 10.62 53 13 53 C15.94464406 42.03411444 11.052745 32.58958431 7.0625 22.5625 C6.05066742 19.9694834 5.04533964 17.37415395 4.04649353 14.77610779 C3.42650813 13.16889961 2.79807764 11.56491686 2.16017151 9.96473694 C0.76233014 6.39032958 0 3.88764735 0 0 Z " fill="#9CBEC8" transform="translate(1230,1120)"/>
<path d="M0 0 C2.64 0 5.28 0 8 0 C8.01458252 0.94842773 8.02916504 1.89685547 8.04418945 2.87402344 C8.10532564 6.4004794 8.1794913 9.92616443 8.26245117 13.45214844 C8.2956588 14.9767834 8.32370378 16.50154006 8.34643555 18.02636719 C8.38005958 20.22122954 8.43237542 22.41498088 8.48828125 24.609375 C8.51446533 25.92905273 8.54064941 27.24873047 8.56762695 28.60839844 C9.01580923 32.12401007 9.45296794 33.58370842 12 36 C16.61035158 37.19527634 19.81450441 37.39171176 24 35 C26.37068912 31.44396632 26.34465108 28.82006655 26.4140625 24.70703125 C26.43342865 24.00100266 26.4527948 23.29497406 26.4727478 22.56755066 C26.53245224 20.31598939 26.5788914 18.06437672 26.625 15.8125 C26.66318829 14.28448311 26.70224052 12.75648755 26.7421875 11.22851562 C26.83814596 7.48585065 26.92221011 3.7430849 27 0 C29.64 0 32.28 0 35 0 C35 14.19 35 28.38 35 43 C32.36 43 29.72 43 27 43 C26.67 42.01 26.34 41.02 26 40 C25.566875 40.474375 25.13375 40.94875 24.6875 41.4375 C21.09378616 44.76501281 16.4435805 44.45320207 11.80078125 44.41015625 C8.02525734 43.85725526 6.09277881 42.44271489 3.33984375 39.8984375 C-0.03497342 35.11662658 -0.24084799 30.10599895 -0.1953125 24.4140625 C-0.19106766 23.36138687 -0.19106766 23.36138687 -0.18673706 22.28744507 C-0.17562512 20.06644972 -0.15053834 17.84587155 -0.125 15.625 C-0.11495854 14.11068295 -0.10583473 12.59635951 -0.09765625 11.08203125 C-0.07571554 7.38788742 -0.04124875 3.69398449 0 0 Z " fill="#9BBEC8" transform="translate(909,1120)"/>
<path d="M0 0 C2.64 0 5.28 0 8 0 C8.01981934 0.91813477 8.03963867 1.83626953 8.06005859 2.78222656 C8.13826955 6.19671825 8.22496584 9.61077702 8.31738281 13.02490234 C8.35560666 14.50105536 8.39047103 15.97729943 8.421875 17.45361328 C8.46766986 19.57878094 8.52563837 21.70332542 8.5859375 23.828125 C8.6173584 25.1059082 8.6487793 26.38369141 8.68115234 27.70019531 C8.9748455 30.73967209 9.31058841 32.49573154 11 35 C14.58533908 36.82037083 18.0099681 37.25826919 21.875 36.25 C24.11577123 35.05153687 24.11577123 35.05153687 26 33 C26.24515697 30.49624532 26.37333658 28.09450521 26.4140625 25.5859375 C26.43342865 24.85629791 26.4527948 24.12665833 26.4727478 23.37490845 C26.53258422 21.04172498 26.57894423 18.70849227 26.625 16.375 C26.66317614 14.79424918 26.70222765 13.21351924 26.7421875 11.6328125 C26.83828878 7.7553777 26.92230412 3.87784551 27 0 C29.64 0 32.28 0 35 0 C35 14.19 35 28.38 35 43 C32.36 43 29.72 43 27 43 C26.67 42.01 26.34 41.02 26 40 C25.4225 40.66 24.845 41.32 24.25 42 C19.33063831 45.0272995 14.63075083 44.89147205 9 44 C5.68280797 42.39531628 3.75447935 40.11375524 1.6875 37.0625 C0.04529721 32.13589163 -0.12046226 27.22447151 -0.09765625 22.0703125 C-0.09443359 20.78125 -0.09121094 19.4921875 -0.08789062 18.1640625 C-0.07953733 16.81770764 -0.07107241 15.47135348 -0.0625 14.125 C-0.0574783 12.75520996 -0.05291657 11.38541815 -0.04882812 10.015625 C-0.03707254 6.6770381 -0.02063964 3.33854185 0 0 Z " fill="#9ABEC8" transform="translate(1126,1120)"/>
<path d="M0 0 C2.72625087 1.57479088 3.19611102 1.99243031 4.3125 5.0625 C4.3125 5.805 4.3125 6.5475 4.3125 7.3125 C1.3125 9.3125 1.3125 9.3125 -1.6875 9.3125 C-1.6875 8.6525 -1.6875 7.9925 -1.6875 7.3125 C-6.80845546 5.53584198 -10.26170541 5.03584245 -15.6875 6.3125 C-17.97478734 8.15133881 -17.97478734 8.15133881 -17.8125 10.9375 C-17.77125 11.72125 -17.73 12.505 -17.6875 13.3125 C-12.62175855 15.67651268 -7.69460089 17.14400065 -2.23828125 18.37109375 C1.41154809 19.71812112 3.57879554 21.84509108 5.3125 25.3125 C5.72904299 29.83839985 5.82323318 33.97891891 4.1875 38.25 C1.0093655 41.74594795 -2.43421261 43.1527814 -7.08984375 43.74609375 C-15.59710311 43.75549404 -20.00459787 43.08903398 -26.625 37.75 C-27.6875 36.3125 -27.6875 36.3125 -27.6875 33.3125 C-25.1875 31.625 -25.1875 31.625 -22.6875 30.3125 C-21.6975 30.9725 -20.7075 31.6325 -19.6875 32.3125 C-19.6875 32.9725 -19.6875 33.6325 -19.6875 34.3125 C-14.55563609 36.54946632 -10.06544962 36.6462315 -4.6875 35.3125 C-2.27628141 33.35616025 -2.27628141 33.35616025 -2.5625 29.6875 C-2.60375 28.57375 -2.645 27.46 -2.6875 26.3125 C-3.85667969 26.07015625 -5.02585937 25.8278125 -6.23046875 25.578125 C-7.77880378 25.24030645 -9.32697236 24.90172437 -10.875 24.5625 C-12.02838867 24.32660156 -12.02838867 24.32660156 -13.20507812 24.0859375 C-17.94753902 23.02753421 -21.12957751 21.82206238 -24.6875 18.3125 C-26.54384116 14.59981769 -26.13494549 10.36436745 -25.6875 6.3125 C-23.99489577 2.80191346 -22.91096958 0.92004482 -19.40625 -0.8203125 C-13.1396195 -2.81915154 -6.03412342 -2.69030413 0 0 Z " fill="#9BBEC8" transform="translate(1593.6875,1120.6875)"/>
<path d="M0 0 C2.48753113 1.39923626 4.22067133 2.48950576 6 4.6875 C5.0433747 7.15878202 4.54027102 8.41736449 2.125 9.625 C0 9.6875 0 9.6875 -1.75 8.3125 C-4.96791519 5.98845014 -8.07864358 5.6875 -12 5.6875 C-14.44162567 6.19583238 -14.44162567 6.19583238 -16 7.6875 C-17.30105635 10.68993773 -16.84139118 12.61738563 -16 15.6875 C-14.90300781 15.85765625 -13.80601562 16.0278125 -12.67578125 16.203125 C-11.22121963 16.44711598 -9.76679966 16.69195245 -8.3125 16.9375 C-7.2306543 17.10185547 -7.2306543 17.10185547 -6.12695312 17.26953125 C-0.70804267 18.20979882 2.90300646 19.89150861 6.3125 24.4375 C7.87478472 29.55043181 7.69088477 33.33131879 5.3125 38 C2.09378602 41.7406676 -0.37740863 43.4939277 -5.33984375 44.0859375 C-6.52707031 44.07820313 -7.71429687 44.07046875 -8.9375 44.0625 C-10.12214844 44.07023437 -11.30679688 44.07796875 -12.52734375 44.0859375 C-17.04292366 43.56783947 -20.37102999 42.24449227 -23.6796875 39.08203125 C-24.78645833 37.6171875 -25.89322917 36.15234375 -27 34.6875 C-25.02 33.3675 -23.04 32.0475 -21 30.6875 C-19.50260417 31.95703125 -18.00520833 33.2265625 -16.5078125 34.49609375 C-13.45468866 36.90853617 -11.65578068 36.68624392 -7.875 36.25 C-6.96492187 36.14816406 -6.05484375 36.04632812 -5.1171875 35.94140625 C-4.41851563 35.85761719 -3.71984375 35.77382812 -3 35.6875 C-1.80404463 32.8503485 -1.80404463 32.8503485 -1 29.6875 C-3.56252068 25.84371897 -6.00137729 25.73328872 -10.25 24.8125 C-15.97582821 23.44236691 -20.01517026 22.14113324 -24 17.6875 C-25.60960241 14.46829518 -25.46158126 11.17861461 -25 7.6875 C-23.23892199 4.0976102 -21.65459617 2.16647281 -18.4375 -0.1875 C-12.42389733 -2.15558815 -5.94705622 -2.38639836 0 0 Z " fill="#9BBEC8" transform="translate(986,1120.3125)"/>
<path d="M0 0 C2.8646195 2.02619428 4.73259995 3.81146392 6.5625 6.8125 C6.3125 9.125 6.3125 9.125 5.5625 10.8125 C3.375 11.625 3.375 11.625 0.5625 11.8125 C-0.159375 11.008125 -0.88125 10.20375 -1.625 9.375 C-5.20753055 6.11091661 -7.26158624 6.22149865 -11.9375 6.1484375 C-15.72642423 7.1548705 -17.13413334 8.65244258 -19.4375 11.8125 C-20.15303427 15.00142233 -20.13730059 18.05618079 -20.0625 21.3125 C-20.08183594 22.15425781 -20.10117188 22.99601562 -20.12109375 23.86328125 C-20.08612003 28.3049437 -19.88135306 30.2422517 -17.078125 33.84375 C-13.96002424 36.16848785 -12.32616462 36.8125 -8.4375 36.8125 C-3.77314597 35.28452195 -0.64630408 33.53471273 2.5625 29.8125 C4.2125 30.8025 5.8625 31.7925 7.5625 32.8125 C6.12429187 37.84622844 3.66004485 39.80205889 -0.4375 42.8125 C-6.70467444 44.90155815 -14.07013418 44.97541654 -20 42.0625 C-20.804375 41.32 -21.60875 40.5775 -22.4375 39.8125 C-23.18 39.19375 -23.9225 38.575 -24.6875 37.9375 C-29.27355709 32.36871639 -29.83783996 24.13362977 -29.19140625 17.15625 C-28.06895507 10.56060767 -25.9232395 6.11180903 -20.9375 1.5 C-14.97758188 -2.52294473 -6.61233728 -2.28426197 0 0 Z " fill="#9BBEC8" transform="translate(1495.4375,1120.1875)"/>
<path d="M0 0 C2.31 0 4.62 0 7 0 C7 3.96 7 7.92 7 12 C9.1965625 11.9690625 9.1965625 11.9690625 11.4375 11.9375 C12.95832518 11.91607993 14.48071962 11.92820036 16 12 C17 13 17 13 17 18 C13.7 18 10.4 18 7 18 C7 28.23 7 38.46 7 49 C9.97 49 12.94 49 16 49 C16 50.98 16 52.96 16 55 C13.89646505 55.0810206 11.79204048 55.13919907 9.6875 55.1875 C8.51574219 55.22230469 7.34398437 55.25710938 6.13671875 55.29296875 C3 55 3 55 1.14453125 53.73828125 C-1.43966412 49.81347942 -1.1170497 45.62373001 -1.09765625 41.046875 C-1.0962413 40.38665344 -1.09482635 39.72643188 -1.09336853 39.04620361 C-1.08779245 36.94742206 -1.07524447 34.84874905 -1.0625 32.75 C-1.0574819 31.32291821 -1.05291954 29.89583475 -1.04882812 28.46875 C-1.03783088 24.97913168 -1.0205828 21.48957644 -1 18 C-3.31 18 -5.62 18 -8 18 C-8 16.02 -8 14.04 -8 12 C-4.535 11.505 -4.535 11.505 -1 11 C-0.67 7.37 -0.34 3.74 0 0 Z " fill="#9BBEC7" transform="translate(1094,1108)"/>
</svg>
